<svg width="81" height="65" viewBox="0 0 81 65" fill="none" xmlns="http://www.w3.org/2000/svg">
    <path fill-rule="evenodd" clip-rule="evenodd" d="M39.9247 0.130298C47.0905 -0.391716 54.2513 0.615221 60.5946 3.86879C67.6858 7.50598 74.4351 12.3746 77.6366 19.4733C81.0084 26.9498 81.2276 35.6407 78.3865 43.3192C75.5912 50.8739 69.6125 57.1207 62.2932 60.9414C55.5295 64.472 47.6156 63.2377 39.9247 63.396C32.024 63.5586 23.8856 65.3457 16.851 61.8766C9.18628 58.0967 1.13972 51.9836 0.0869573 43.75C-0.957435 35.5818 7.66963 29.6754 11.8136 22.4788C14.9564 17.0208 16.4107 10.696 21.4076 6.72352C26.6105 2.58721 33.1985 0.620299 39.9247 0.130298Z" fill="#C3D6EB"/>
    <path d="M33.3634 43.7016L33.4153 43.6408L33.3634 43.7016C33.7967 44.0712 33.8485 44.7225 33.4801 45.1561C33.2761 45.3962 32.9867 45.5194 32.6952 45.5194C32.4598 45.5194 32.2226 45.4383 32.0289 45.273L31.9771 45.3337L32.0289 45.273L24.8497 39.1477C24.6199 38.9514 24.4877 38.6646 24.4877 38.3617C24.4877 38.0594 24.6204 37.7726 24.8498 37.5761L32.0289 31.4509L32.0289 31.4509C32.4615 31.0814 33.1112 31.1337 33.4801 31.5672C33.8485 32.0015 33.7966 32.6528 33.3635 33.0217L33.3634 33.0218L27.1767 38.3009L27.1055 38.3617L27.1767 38.4224L33.3634 43.7016Z" fill="#0A2235" stroke="#C3D6EB" stroke-width="0.159691"/>
    <path d="M46.0835 45.1561L46.0836 45.1562C46.287 45.3962 46.5764 45.5194 46.8678 45.5194C47.1033 45.5194 47.3404 45.4383 47.5341 45.273L47.586 45.3337L47.5341 45.273L54.7133 39.1477L46.0835 45.1561ZM46.0835 45.1561C45.7146 44.7225 45.7669 44.0712 46.1996 43.7015M46.0835 45.1561L46.1996 43.7015M46.1996 43.7015L52.3864 38.4224L52.4576 38.3617L52.3864 38.3009L46.1996 33.0218L46.1996 33.0218C45.767 32.6527 45.7146 32.0014 46.0836 31.5672L46.0836 31.5672C46.4519 31.1337 47.1022 31.0814 47.5341 31.4509L47.5341 31.4509L54.7133 37.5762C54.9432 37.7726 55.0754 38.0593 55.0754 38.3617C55.0754 38.6646 54.9432 38.9513 54.7134 39.1477L46.1996 43.7015Z" fill="#0A2235" stroke="#C3D6EB" stroke-width="0.159691"/>
    <path d="M36.231 48.8688L36.231 48.8688C36.1137 49.4262 36.47 49.9737 37.026 50.0912C37.0982 50.1062 37.1695 50.1137 37.24 50.1137C37.7161 50.1137 38.1436 49.7804 38.2459 49.2944L36.231 48.8688ZM36.231 48.8688L40.7053 27.5828M36.231 48.8688L40.7053 27.5828M40.7053 27.5828C40.8225 27.0253 41.3684 26.6685 41.925 26.7859L40.7053 27.5828ZM42.7202 28.0084L38.2459 49.2943L41.925 26.7859C42.4811 26.9034 42.8375 27.4503 42.7202 28.0084C42.7202 28.0084 42.7202 28.0084 42.7202 28.0084Z" fill="#0A2235" stroke="#C3D6EB" stroke-width="0.159691"/>
    <path d="M13.6303 61.8702H65.9327C70.0841 61.8702 73.4617 58.4863 73.4617 54.3263V9.84616C73.4617 5.68683 70.0841 2.3023 65.9327 2.3023H13.6303C9.47886 2.3023 6.10131 5.68683 6.10131 9.84616V54.3263C6.10131 58.4863 9.47887 61.8702 13.6303 61.8702ZM8.47989 9.84616C8.47989 7.00053 10.7907 4.68531 13.6303 4.68531H65.9327C68.7723 4.68531 71.0831 7.00053 71.0831 9.84616V54.3263C71.0831 57.1719 68.7723 59.4872 65.9327 59.4872H13.6303C10.7907 59.4872 8.47989 57.1719 8.47989 54.3263V9.84616Z" fill="#0A2235" stroke="#C3D6EB" stroke-width="0.159691"/>
    <path d="M25.1371 14.7836C23.246 14.7836 21.7059 13.2408 21.7059 11.3455C21.7059 9.44963 23.246 7.90736 25.1371 7.90736C27.0288 7.90736 28.5682 9.44963 28.5682 11.3455C28.5682 13.2408 27.0288 14.7836 25.1371 14.7836ZM25.1371 9.97099C24.3809 9.97099 23.7651 10.5875 23.7651 11.3455C23.7651 12.1035 24.3809 12.72 25.1371 12.72C25.8939 12.72 26.509 12.1035 26.509 11.3455C26.509 10.5875 25.8939 9.97099 25.1371 9.97099Z" fill="#0A2235" stroke="#C3D6EB" stroke-width="0.159691"/>
    <path d="M14.3497 14.7496C12.458 14.7496 10.9186 13.2073 10.9186 11.3114C10.9186 9.41557 12.458 7.8733 14.3497 7.8733C16.2414 7.8733 17.7808 9.41557 17.7808 11.3114C17.7808 13.2073 16.2414 14.7496 14.3497 14.7496ZM14.3497 9.93694C13.5935 9.93694 12.9778 10.5541 12.9778 11.3114C12.9778 12.0694 13.5935 12.686 14.3497 12.686C15.1066 12.686 15.7216 12.0694 15.7216 11.3114C15.7216 10.5541 15.1066 9.93694 14.3497 9.93694Z" fill="#0A2235" stroke="#C3D6EB" stroke-width="0.159691"/>
    <path d="M35.9244 14.8171C34.0333 14.8171 32.4939 13.2749 32.4939 11.379C32.4939 9.48374 34.0333 7.94148 35.9244 7.94148C37.8161 7.94148 39.3555 9.48375 39.3555 11.379C39.3555 13.2749 37.8161 14.8171 35.9244 14.8171ZM35.9244 10.0045C35.1682 10.0045 34.5531 10.6211 34.5531 11.379C34.5531 12.1369 35.1682 12.7535 35.9244 12.7535C36.6813 12.7535 37.2963 12.137 37.2963 11.379C37.2963 10.621 36.6813 10.0045 35.9244 10.0045Z" fill="#0A2235" stroke="#C3D6EB" stroke-width="0.159691"/>
    <rect x="8.24158" y="17.469" width="63.8724" height="2.06452" fill="#0A2235"/>
</svg>
