<?xml version="1.0" encoding="utf-8"?>
<svg width="81px" height="65px" viewBox="0 0 84 69" fill="none" xmlns="http://www.w3.org/2000/svg">
  <g clip-path="url(#clip0)" transform="matrix(1, 0, 0, 1, -8.079082, -11.420877)">
    <path fill-rule="evenodd" clip-rule="evenodd" d="M62.6793 13.2627C69.7014 15.4256 76.1513 19.0435 80.988 24.4988C86.395 30.5973 91.0191 37.7423 91.4344 45.6954C91.8719 54.0716 88.8542 62.4347 83.2963 68.6968C77.828 74.8581 69.8117 78.5912 61.4186 79.5146C53.6627 80.368 46.5796 76.2539 39.1921 73.5495C31.603 70.7713 23.1844 69.4529 17.769 63.5356C11.8684 57.0882 6.47019 48.2756 8.5237 40.0389C10.5609 31.8676 20.9745 29.442 27.595 24.1227C32.6161 20.0885 36.35 14.6015 42.5863 12.6711C49.0798 10.6611 56.0878 11.2326 62.6793 13.2627Z" fill="#C3D6EB"/>
    <path d="M26.6016 74.8626H79.9744C84.2105 74.8626 87.6576 71.4259 87.6576 67.2003V22.0251C87.6576 17.8001 84.2105 14.3628 79.9744 14.3628H26.6016C22.3655 14.3628 18.9183 17.8001 18.9183 22.0251V67.2003C18.9183 71.4259 22.3655 74.8626 26.6016 74.8626ZM21.346 22.0251C21.346 19.1357 23.7036 16.7842 26.6016 16.7842H79.9744C82.8723 16.7842 85.23 19.1357 85.23 22.0251V67.2003C85.23 70.0897 82.8723 72.4412 79.9744 72.4412H26.6016C23.7036 72.4412 21.346 70.0897 21.346 67.2003V22.0251Z" fill="#0A2235" stroke="#C3D6EB" stroke-width="0.163313"/>
    <path d="M38.4146 27.0392C36.4846 27.0392 34.9134 25.4721 34.9134 23.5479C34.9134 21.6231 36.4845 20.0566 38.4146 20.0566C40.3453 20.0566 41.9158 21.6231 41.9158 23.5479C41.9158 25.4721 40.3453 27.0392 38.4146 27.0392ZM38.4146 22.1514C37.6432 22.1514 37.0144 22.7774 37.0144 23.5479C37.0144 24.3184 37.6432 24.9445 38.4146 24.9445C39.1867 24.9445 39.8148 24.3184 39.8148 23.5479C39.8148 22.7774 39.1867 22.1514 38.4146 22.1514Z" fill="#0A2235" stroke="#C3D6EB" stroke-width="0.163313"/>
    <path d="M27.4066 27.0046C25.4759 27.0046 23.9054 25.4381 23.9054 23.5133C23.9054 21.5884 25.4759 20.022 27.4066 20.022C29.3372 20.022 30.9077 21.5884 30.9077 23.5133C30.9077 25.4381 29.3372 27.0046 27.4066 27.0046ZM27.4066 22.1167C26.6351 22.1167 26.0064 22.7434 26.0064 23.5133C26.0064 24.2838 26.6351 24.9098 27.4066 24.9098C28.1786 24.9098 28.8067 24.2838 28.8067 23.5133C28.8067 22.7434 28.1786 22.1167 27.4066 22.1167Z" fill="#0A2235" stroke="#C3D6EB" stroke-width="0.163313"/>
    <path d="M49.4228 27.0733C47.4927 27.0733 45.9222 25.5068 45.9222 23.582C45.9222 21.6578 47.4927 20.0913 49.4228 20.0913C51.3535 20.0913 52.9239 21.6578 52.9239 23.582C52.9239 25.5068 51.3535 27.0733 49.4228 27.0733ZM49.4228 22.1854C48.6513 22.1854 48.0232 22.8115 48.0232 23.582C48.0232 24.3524 48.6513 24.9785 49.4228 24.9785C50.1948 24.9785 50.823 24.3525 50.823 23.582C50.823 22.8115 50.1948 22.1854 49.4228 22.1854Z" fill="#0A2235" stroke="#C3D6EB" stroke-width="0.163313"/>
    <path d="M21.2722 29.8834H86.593V31.9948H21.2722V29.8834Z" fill="#0A2235"/>
    <path d="M59.3236 40.3594L54.905 44.778L48.3176 46.6624C47.6822 46.8332 47.0993 47.1594 46.6213 47.6115C46.1432 48.0636 45.7851 48.6275 45.579 49.2524L41.5944 61.5563L42.9959 62.9578L44.3974 64.3594L56.7053 60.3718C57.3269 60.1659 57.8879 59.8094 58.3382 59.3339C58.7884 58.8584 59.1139 58.2788 59.2855 57.6469L61.1708 51.0517L65.5924 46.6281L59.3236 40.3594ZM59.3236 43.1233L62.8284 46.6281L60.301 49.1556L56.7962 45.6508L59.3236 43.1233ZM55.1308 46.7503L59.2015 50.82L57.4012 57.124C57.3149 57.4452 57.1505 57.7401 56.9227 57.9824C56.6949 58.2247 56.4107 58.4069 56.0954 58.5128L45.3376 61.9971L51.0014 56.3333C51.1655 56.3779 51.3347 56.4009 51.5048 56.4017C52.0232 56.4017 52.5204 56.1958 52.887 55.8292C53.2535 55.4626 53.4595 54.9654 53.4595 54.447C53.4595 53.9286 53.2535 53.4314 52.887 53.0648C52.5204 52.6982 52.0232 52.4923 51.5048 52.4923C51.2053 52.4926 50.9099 52.5618 50.6413 52.6944C50.3728 52.8271 50.1383 53.0196 49.9561 53.2573C49.7738 53.4949 49.6485 53.7713 49.59 54.065C49.5315 54.3587 49.5412 54.662 49.6185 54.9513L43.9547 60.6141L47.437 49.8632C47.5434 49.5443 47.7274 49.2568 47.9726 49.0268C48.2178 48.7968 48.5164 48.6315 48.8415 48.5457L55.1317 46.7493L55.1308 46.7503Z" fill="#0A2235"/>
  </g>
  <defs>
    <clipPath id="clip0">
      <rect width="102" height="92" fill="white"/>
    </clipPath>
  </defs>
</svg>