<svg width="81" height="65" viewBox="0 0 81 65" fill="none" xmlns="http://www.w3.org/2000/svg">
    <path fill-rule="evenodd" clip-rule="evenodd" d="M39.9247 0.130298C47.0905 -0.391716 54.2513 0.615221 60.5946 3.86879C67.6858 7.50598 74.4351 12.3746 77.6366 19.4733C81.0084 26.9498 81.2276 35.6407 78.3865 43.3192C75.5912 50.8739 69.6125 57.1207 62.2932 60.9414C55.5295 64.472 47.6156 63.2377 39.9247 63.396C32.024 63.5586 23.8856 65.3457 16.851 61.8766C9.18628 58.0967 1.13972 51.9836 0.0869573 43.75C-0.957435 35.5818 7.66963 29.6754 11.8136 22.4788C14.9564 17.0208 16.4107 10.696 21.4076 6.72352C26.6105 2.58721 33.1985 0.620299 39.9247 0.130298Z" fill="#C3D6EB"/>
    <path d="M13.4491 61.8702H65.7516C69.903 61.8702 73.2805 58.4862 73.2805 54.3263V9.84615C73.2805 5.68681 69.903 2.30228 65.7516 2.30228H13.4491C9.29771 2.30228 5.92015 5.68681 5.92015 9.84615V54.3263C5.92015 58.4862 9.29771 61.8702 13.4491 61.8702ZM8.29874 9.84615C8.29874 7.00051 10.6096 4.6853 13.4491 4.6853H65.7516C68.5911 4.6853 70.902 7.00051 70.902 9.84615V54.3263C70.902 57.1719 68.5911 59.4871 65.7516 59.4871H13.4491C10.6096 59.4871 8.29874 57.1719 8.29874 54.3263V9.84615Z" fill="#0A2235" stroke="#C3D6EB" stroke-width="0.159691"/>
    <path d="M25.1371 14.7837C23.246 14.7837 21.7059 13.2408 21.7059 11.3455C21.7059 9.44964 23.246 7.90737 25.1371 7.90737C27.0288 7.90737 28.5682 9.44963 28.5682 11.3455C28.5682 13.2408 27.0288 14.7837 25.1371 14.7837ZM25.1371 9.971C24.3809 9.971 23.7651 10.5875 23.7651 11.3455C23.7651 12.1035 24.3809 12.72 25.1371 12.72C25.8939 12.72 26.509 12.1035 26.509 11.3455C26.509 10.5875 25.8939 9.971 25.1371 9.971Z" fill="#0A2235" stroke="#C3D6EB" stroke-width="0.159691"/>
    <path d="M14.3497 14.7496C12.458 14.7496 10.9186 13.2073 10.9186 11.3114C10.9186 9.41554 12.458 7.87327 14.3497 7.87327C16.2414 7.87327 17.7808 9.41554 17.7808 11.3114C17.7808 13.2073 16.2414 14.7496 14.3497 14.7496ZM14.3497 9.93691C13.5935 9.93691 12.9778 10.5541 12.9778 11.3114C12.9778 12.0694 13.5935 12.6859 14.3497 12.6859C15.1066 12.6859 15.7216 12.0694 15.7216 11.3114C15.7216 10.5541 15.1066 9.93691 14.3497 9.93691Z" fill="#0A2235" stroke="#C3D6EB" stroke-width="0.159691"/>
    <path d="M35.9244 14.8172C34.0333 14.8172 32.4939 13.2749 32.4939 11.379C32.4939 9.48376 34.0333 7.94149 35.9244 7.94149C37.8161 7.94149 39.3555 9.48377 39.3555 11.379C39.3555 13.2749 37.8161 14.8172 35.9244 14.8172ZM35.9244 10.0045C35.1682 10.0045 34.5531 10.6211 34.5531 11.379C34.5531 12.137 35.1682 12.7535 35.9244 12.7535C36.6813 12.7535 37.2963 12.137 37.2963 11.379C37.2963 10.6211 36.6813 10.0045 35.9244 10.0045Z" fill="#0A2235" stroke="#C3D6EB" stroke-width="0.159691"/>
    <rect x="8.24158" y="17.469" width="63.8724" height="2.06452" fill="#0A2235"/>
    <path d="M48.3359 38.3185C47.7935 37.0976 47.0049 36.0018 46.0195 35.0996L45.2064 34.3535C45.1788 34.3289 45.1456 34.3114 45.1096 34.3026C45.0737 34.2938 45.0361 34.294 45.0003 34.3031C44.9644 34.3122 44.9313 34.3299 44.9039 34.3548C44.8765 34.3797 44.8557 34.4109 44.8432 34.4457L44.4799 35.488C44.2536 36.1418 43.8372 36.8096 43.2476 37.4663C43.2085 37.5082 43.1638 37.5194 43.1331 37.5222C43.1023 37.525 43.0548 37.5194 43.0129 37.4803C42.9738 37.4467 42.9542 37.3964 42.957 37.3461C43.0604 35.664 42.5575 33.7667 41.4565 31.7018C40.5456 29.9861 39.2798 28.6477 37.6983 27.7144L36.5443 27.0354C36.3934 26.946 36.2006 27.0633 36.209 27.2394L36.2704 28.5806C36.3123 29.4971 36.2062 30.3075 35.9547 30.9809C35.6473 31.8052 35.2058 32.5708 34.6414 33.2582C34.2486 33.7359 33.8034 34.168 33.3141 34.5463C32.1358 35.4521 31.1777 36.6127 30.5115 37.9413C29.847 39.2815 29.5008 40.7569 29.5 42.2528C29.5 43.5717 29.7599 44.8487 30.274 46.053C30.7704 47.2125 31.4869 48.2648 32.3837 49.1518C33.289 50.0459 34.3396 50.7501 35.5104 51.2391C36.7231 51.7476 38.0084 52.0047 39.3357 52.0047C40.663 52.0047 41.9483 51.7476 43.161 51.2419C44.3289 50.7557 45.3909 50.0468 46.2878 49.1546C47.1931 48.2604 47.9028 47.2154 48.3974 46.0558C48.9108 44.8547 49.1741 43.5617 49.1714 42.2556C49.1714 40.892 48.892 39.5676 48.3359 38.3185ZM44.9521 47.7994C43.4516 49.2859 41.4593 50.1018 39.3357 50.1018C37.2121 50.1018 35.2198 49.2859 33.7193 47.7994C32.2244 46.3156 31.4001 44.3485 31.4001 42.2556C31.4001 41.0401 31.6739 39.8749 32.2132 38.7908C32.7385 37.7317 33.5209 36.7845 34.4709 36.0552C35.0768 35.5919 35.6264 35.0592 36.1084 34.4681C36.8069 33.6158 37.3546 32.6658 37.7346 31.6459C37.8905 31.2252 38.0038 30.7899 38.0727 30.3466C38.7461 30.9669 39.3106 31.7157 39.7828 32.5931C40.7161 34.3423 41.1464 35.8987 41.0625 37.2232C41.0425 37.5351 41.0935 37.8475 41.2116 38.137C41.3296 38.4264 41.5118 38.6853 41.7443 38.8941C41.9459 39.0762 42.1815 39.2164 42.4377 39.3065C42.6938 39.3967 42.9654 39.4351 43.2365 39.4195C43.7869 39.3915 44.2927 39.1484 44.6615 38.7377C45.0332 38.3213 45.3545 37.8966 45.6227 37.4635C46.0139 37.9637 46.3409 38.5085 46.6007 39.0953C47.045 40.0957 47.2713 41.1603 47.2713 42.2556C47.2713 44.3485 46.447 46.3184 44.9521 47.7994Z" fill="#0A2235"/>
</svg>
