<?xml version="1.0" encoding="utf-8"?>
<svg width="81px" height="65px" viewBox="0 0 84 69" fill="none" xmlns="http://www.w3.org/2000/svg">
  <g clip-path="url(#clip0)" transform="matrix(1, 0, 0, 1, -8.079084, -11.420786)">
    <path fill-rule="evenodd" clip-rule="evenodd" d="M62.6793 13.2627C69.7014 15.4255 75.252 18.3771 80.988 24.4988C87.298 31.2329 91.0191 37.7422 91.4344 45.6953C91.8719 54.0715 88.8542 62.4346 83.2963 68.6968C77.828 74.858 69.8117 78.5911 61.4186 79.5146C53.6627 80.3679 46.5796 76.2538 39.1921 73.5494C31.603 70.7712 23.1844 69.4529 17.769 63.5355C11.8684 57.0881 6.4702 48.2755 8.5237 40.0388C10.5609 31.8675 20.9745 29.442 27.595 24.1227C32.6161 20.0885 36.35 14.6014 42.5864 12.671C49.0798 10.661 56.0878 11.2325 62.6793 13.2627Z" fill="#C3D6EB"/>
    <path d="M26.3408 74.8625H79.1903C83.3861 74.8625 86.799 71.4251 86.799 67.2002V22.025C86.799 17.8008 83.3861 14.3627 79.1903 14.3627H26.3408C22.145 14.3627 18.7321 17.8008 18.7321 22.025V67.2002C18.7321 71.4251 22.145 74.8625 26.3408 74.8625ZM21.1375 22.025C21.1375 19.1349 23.4724 16.7841 26.3408 16.7841H79.1903C82.0586 16.7841 84.3936 19.1349 84.3936 22.025V67.2002C84.3936 70.0904 82.0586 72.4411 79.1903 72.4411H26.3408C23.4724 72.4411 21.1375 70.0904 21.1375 67.2002V22.025Z" fill="#0A2235" stroke="#C3D6EB" stroke-width="0.163313"/>
    <path d="M38.0381 27.0392C36.1281 27.0392 34.572 25.4728 34.572 23.5479C34.572 21.6223 36.1281 20.0566 38.0381 20.0566C39.9486 20.0566 41.5041 21.6223 41.5041 23.5479C41.5041 25.4728 39.9486 27.0392 38.0381 27.0392ZM38.0381 22.1513C37.273 22.1513 36.6508 22.7781 36.6508 23.5479C36.6508 24.3176 37.273 24.9444 38.0381 24.9444C38.8038 24.9444 39.4253 24.3176 39.4253 23.5479C39.4253 22.7781 38.8038 22.1513 38.0381 22.1513Z" fill="#0A2235" stroke="#C3D6EB" stroke-width="0.163313"/>
    <path d="M27.1378 27.0045C25.2272 27.0045 23.6717 25.4388 23.6717 23.5132C23.6717 21.5876 25.2272 20.0219 27.1378 20.0219C29.0484 20.0219 30.6038 21.5876 30.6038 23.5132C30.6038 25.4388 29.0484 27.0045 27.1378 27.0045ZM27.1378 22.1167C26.3727 22.1167 25.7505 22.7441 25.7505 23.5132C25.7505 24.283 26.3727 24.9098 27.1378 24.9098C27.9035 24.9098 28.525 24.2829 28.525 23.5132C28.525 22.7441 27.9035 22.1167 27.1378 22.1167Z" fill="#0A2235" stroke="#C3D6EB" stroke-width="0.163313"/>
    <path d="M48.9382 27.0732C47.0283 27.0732 45.4728 25.5075 45.4728 23.5819C45.4728 21.657 47.0282 20.0912 48.9382 20.0912C50.8488 20.0912 52.4042 21.657 52.4042 23.5819C52.4042 25.5075 50.8488 27.0732 48.9382 27.0732ZM48.9382 22.1854C48.1731 22.1854 47.5516 22.8122 47.5516 23.5819C47.5516 24.3516 48.1731 24.9785 48.9382 24.9785C49.7039 24.9785 50.3254 24.3516 50.3254 23.5819C50.3254 22.8122 49.7039 22.1854 48.9382 22.1854Z" fill="#0A2235" stroke="#C3D6EB" stroke-width="0.163313"/>
    <rect x="21.2722" y="29.8834" width="65.3208" height="2.11133" fill="#0A2235"/>
    <path d="M63.7567 40.2451L63.7567 40.2451L66.2654 42.776C66.2654 42.776 66.2654 42.776 66.2654 42.776C66.5689 43.0821 66.5688 43.5778 66.2657 43.884L66.2656 43.8841L64.0068 46.1629L64.0067 46.1629C63.5364 46.6372 62.7147 46.3146 62.6784 45.652C62.6615 45.3454 62.5339 45.0574 62.319 44.8407C61.8446 44.3622 61.0507 44.3622 60.5765 44.8407C60.1014 45.3199 60.1014 46.1231 60.5764 46.6023C60.7913 46.8191 61.0762 46.9475 61.379 46.9643L61.3791 46.9643C62.0411 47.0014 62.3534 47.8307 61.8869 48.3012C61.8869 48.3012 61.8869 48.3012 61.8869 48.3012L59.6281 50.58L59.6281 50.58C59.3271 50.8835 58.827 50.8835 58.526 50.58L58.526 50.58L57.1404 49.182C57.0373 49.3397 56.9181 49.4877 56.7836 49.6233C56.2569 50.1547 55.5557 50.4478 54.8103 50.4478C54.0649 50.4478 53.3636 50.1547 52.8369 49.6233C52.6084 49.3927 52.4192 49.1227 52.2817 48.8269C51.7886 47.7654 52.0163 46.4736 52.837 45.6458C52.837 45.6458 52.837 45.6458 52.8371 45.6458L52.9436 45.7514C53.0785 45.6153 53.2264 45.4953 53.3845 45.3929L63.7567 40.2451ZM63.7567 40.2451C63.4525 39.9383 62.9589 39.9383 62.6547 40.2451C62.3512 40.5513 62.3512 41.047 62.6547 41.3531L64.6142 43.3298L63.7776 44.1738C63.6745 44.016 63.5552 43.8681 63.4207 43.7325C62.5999 42.9043 61.3178 42.674 60.2641 43.1721L60.3272 43.3056L60.2641 43.1721C59.9706 43.3109 59.7028 43.5019 59.4742 43.7325C58.6535 44.5603 58.426 45.852 58.9189 46.9136L58.9189 46.9136C59.0564 47.2094 59.2456 47.4794 59.4742 47.71C59.6092 47.8463 59.7566 47.9672 59.9139 48.0715M63.7567 40.2451L59.9139 48.0715M59.9139 48.0715L59.0769 48.9159L59.9139 48.0715ZM51.8888 43.884L53.2767 45.2842L57.2626 47.2986C56.8857 46.9186 56.2199 47.1763 56.1905 47.7121L56.0408 47.7039C56.0408 47.7039 56.0408 47.7039 56.0408 47.7039C56.005 48.3554 55.4537 48.8794 54.8101 48.8794C54.4809 48.8794 54.1719 48.7505 53.9388 48.5152C53.4637 48.0359 53.4637 47.2328 53.9388 46.7535C54.1536 46.5368 54.4386 46.4084 54.7415 46.3916L54.7416 46.3916C55.4034 46.3545 55.7159 45.5253 55.2496 45.0547L55.2496 45.0547L53.5399 43.3299L59.0771 37.7439L60.427 39.1057L60.427 39.1057C60.7312 39.4126 61.2248 39.4126 61.529 39.1057C61.8324 38.7996 61.8325 38.3038 61.529 37.9978C61.529 37.9978 61.529 37.9978 61.529 37.9977L59.6281 36.0801L59.6281 36.0801C59.3238 35.7733 58.8302 35.7733 58.526 36.0801L51.8888 42.7761C51.5853 43.0822 51.5853 43.5779 51.8888 43.884C51.8888 43.884 51.8888 43.884 51.8888 43.884Z" fill="#0A2235" stroke="#0A2235" stroke-width="0.3"/>
    <path d="M59.0096 54.1124H57.0489C57.0869 53.9266 57.1063 53.7362 57.1063 53.5437C57.1063 51.9936 55.856 50.7304 54.3163 50.7304C52.7765 50.7304 51.5263 51.9936 51.5263 53.5437C51.5263 53.7362 51.5457 53.9266 51.5837 54.1124H50.4014V51.6739C50.4014 51.0109 49.5992 50.6422 49.1031 51.0901L49.1031 51.0901C48.8768 51.2945 48.5851 51.4068 48.282 51.4068C47.6036 51.4068 47.0492 50.8494 47.0492 50.1618C47.0492 49.4742 47.6037 48.9168 48.282 48.9168C48.5852 48.9168 48.8769 49.0291 49.103 49.2335L49.1031 49.2335C49.5991 49.6814 50.4014 49.3129 50.4014 48.6498V45.427C50.4014 44.9953 50.0542 44.6429 49.6228 44.6429H40.2364C39.8051 44.6429 39.4578 44.9953 39.4578 45.427V64.3659C39.4578 64.7977 39.8051 65.15 40.2364 65.15H59.0096C59.4409 65.15 59.7882 64.7977 59.7882 64.3659V54.8966C59.7882 54.4648 59.4408 54.1124 59.0096 54.1124ZM49.3048 60.4277L49.3048 60.4277C49.0243 60.5542 48.8444 60.8348 48.8444 61.1433V63.5818H41.0149V55.6806H42.1971C42.1592 55.8664 42.1397 56.0568 42.1397 56.2493C42.1397 57.7994 43.39 59.0626 44.9297 59.0626C46.4695 59.0626 47.7198 57.7994 47.7198 56.2493C47.7198 56.0568 47.7003 55.8664 47.6623 55.6806H48.8446V58.1192C48.8446 58.7821 49.6468 59.151 50.1429 58.7029C50.3692 58.4985 50.6609 58.3861 50.9641 58.3861C51.6425 58.3861 52.1969 58.9436 52.1969 59.6311C52.1969 60.3188 51.6425 60.8762 50.9641 60.8762C50.6609 60.8762 50.3692 60.7638 50.143 60.5594L50.1428 60.5593C49.9139 60.353 49.5855 60.3012 49.3048 60.4277ZM55.8152 55.6804H58.2311V63.5818H50.4016V62.3869C50.5853 62.425 50.7737 62.4445 50.964 62.4445C52.5038 62.4445 53.754 61.1813 53.754 59.6311C53.754 58.081 52.5038 56.8178 50.964 56.8178C50.7737 56.8178 50.5853 56.8374 50.4016 56.8755V55.6804H52.8175C53.4805 55.6804 53.8381 54.8698 53.3981 54.3738L53.398 54.3738C53.1953 54.1454 53.0835 53.8506 53.0835 53.5436C53.0835 52.8559 53.638 52.2985 54.3164 52.2985C54.9947 52.2985 55.5492 52.856 55.5492 53.5436C55.5492 53.8506 55.4374 54.1454 55.2347 54.3738L55.2347 54.3738C54.7948 54.8697 55.1521 55.6804 55.8152 55.6804ZM41.015 46.2112H48.8445V47.4062C48.6608 47.3681 48.4724 47.3486 48.2821 47.3486C46.7423 47.3486 45.4921 48.6118 45.4921 50.1619C45.4921 51.712 46.7423 52.9752 48.2821 52.9752C48.4724 52.9752 48.6608 52.9556 48.8445 52.9176V54.1126H46.4286C45.7658 54.1126 45.4079 54.9232 45.8481 55.4191C46.0508 55.6476 46.1626 55.9424 46.1626 56.2494C46.1626 56.937 45.6082 57.4944 44.9297 57.4944C44.2513 57.4944 43.6969 56.937 43.6969 56.2494C43.6969 55.9424 43.8087 55.6476 44.0114 55.4191C44.4516 54.9233 44.0939 54.1126 43.4309 54.1126H41.015V46.2112Z" fill="#0A2235" stroke="#0A2235" stroke-width="0.3"/>
  </g>
  <defs>
    <clipPath id="clip0">
      <rect width="101" height="92" fill="white"/>
    </clipPath>
  </defs>
</svg>