<svg width="82" height="65" viewBox="0 0 82 65" fill="none" xmlns="http://www.w3.org/2000/svg">
    <g clip-path="url(#clip0)">
        <path fill-rule="evenodd" clip-rule="evenodd" d="M40.7418 65.1768C48.0541 65.7095 55.3616 64.6819 61.8347 61.3618C69.071 57.6502 75.9584 52.6819 79.2254 45.4379C82.6662 37.8084 82.8899 28.9396 79.9906 21.104C77.1381 13.3947 71.0371 7.02011 63.568 3.12125C56.6659 -0.481606 48.59 0.777893 40.7418 0.616371C32.6793 0.450439 24.3744 -1.37323 17.1959 2.16688C9.37428 6.02412 1.16304 12.2624 0.0887368 20.6645C-0.977029 28.9998 7.82659 35.0271 12.0553 42.371C15.2625 47.9406 16.7466 54.3948 21.8457 58.4486C27.155 62.6696 33.8778 64.6768 40.7418 65.1768Z" fill="#C3D6EB"/>
        <path d="M15.9467 62.5846H69.3195C73.5555 62.5846 77.0025 59.148 77.0025 54.9225V9.74733C77.0025 5.52243 73.5555 2.08521 69.3195 2.08521H15.9467C11.7107 2.08521 8.26361 5.52243 8.26361 9.74733V54.9225C8.26361 59.148 11.7107 62.5846 15.9467 62.5846ZM10.6909 9.74733C10.6909 6.85782 13.0486 4.50623 15.9467 4.50623H69.3195C72.2175 4.50623 74.5753 6.85782 74.5753 9.74733V54.9225C74.5753 57.812 72.2175 60.1636 69.3195 60.1636H15.9467C13.0486 60.1636 10.6909 57.812 10.6909 54.9225V9.74733Z" fill="#0A2235" stroke="#C3D6EB" stroke-width="0.162959"/>
        <path d="M27.6889 14.7616C25.7587 14.7616 24.1876 13.1945 24.1876 11.2702C24.1876 9.34525 25.7587 7.77868 27.6889 7.77868C29.6197 7.77868 31.1903 9.34524 31.1903 11.2702C31.1903 13.1945 29.6197 14.7616 27.6889 14.7616ZM27.6889 9.87379C26.9176 9.87379 26.2889 10.4997 26.2889 11.2702C26.2889 12.0406 26.9176 12.6665 27.6889 12.6665C28.4609 12.6665 29.0889 12.0406 29.0889 11.2702C29.0889 10.4998 28.4609 9.87379 27.6889 9.87379Z" fill="#0A2235" stroke="#C3D6EB" stroke-width="0.162959"/>
        <path d="M16.6808 14.727C14.7501 14.727 13.1795 13.1604 13.1795 11.2355C13.1795 9.31057 14.7501 7.74402 16.6808 7.74402C18.6116 7.74402 20.1822 9.31057 20.1822 11.2355C20.1822 13.1604 18.6116 14.727 16.6808 14.727ZM16.6808 9.83912C15.9095 9.83912 15.2808 10.4657 15.2808 11.2355C15.2808 12.0059 15.9095 12.6319 16.6808 12.6319C17.4528 12.6319 18.0809 12.0059 18.0809 11.2355C18.0809 10.4658 17.4528 9.83912 16.6808 9.83912Z" fill="#0A2235" stroke="#C3D6EB" stroke-width="0.162959"/>
        <path d="M38.6971 14.7956C36.7669 14.7956 35.1963 13.2291 35.1963 11.3041C35.1963 9.37985 36.7669 7.81329 38.6971 7.81329C40.6279 7.81329 42.1984 9.37985 42.1984 11.3041C42.1984 13.2291 40.6279 14.7956 38.6971 14.7956ZM38.6971 9.90777C37.9257 9.90777 37.2977 10.5338 37.2977 11.3041C37.2977 12.0745 37.9257 12.7005 38.6971 12.7005C39.469 12.7005 40.0971 12.0745 40.0971 11.3041C40.0971 10.5338 39.469 9.90777 38.6971 9.90777Z" fill="#0A2235" stroke="#C3D6EB" stroke-width="0.162959"/>
        <rect x="10.4476" y="17.5726" width="65.1795" height="2.10677" fill="#0A2235"/>
        <path d="M54.317 23.3815H41.1256C40.7159 23.3815 40.383 23.7123 40.383 24.1211C40.383 24.5299 40.7159 24.8607 41.1256 24.8607H54.317C54.6268 24.8607 54.8783 25.1116 54.8783 25.4188V54.7478C54.8783 55.0551 54.6268 55.306 54.317 55.306H30.5855C30.2757 55.306 30.0243 55.0551 30.0243 54.7478V37.3797C30.0243 36.9709 29.6913 36.6401 29.2816 36.6401C28.8719 36.6401 28.5389 36.9709 28.5389 37.3797V54.7478C28.5389 55.8717 29.4574 56.7852 30.5855 56.7852H54.317C55.4452 56.7852 56.3636 55.8717 56.3636 54.7478V25.4188C56.3636 24.295 55.4452 23.3815 54.317 23.3815Z" fill="#0A2235" stroke="black" stroke-width="0.181416"/>
        <path d="M41.1126 26.0783L41.1125 26.0783C40.7075 26.1402 40.4287 26.5173 40.491 26.9215C40.5532 27.3256 40.9327 27.6018 41.3375 27.5404L41.3376 27.5404C41.7035 27.4845 42.0782 27.4562 42.4513 27.4562C46.4639 27.4562 49.7278 30.7053 49.7278 34.6978C49.7278 36.4253 49.1166 38.013 48.0982 39.2593C47.62 38.4765 46.9814 37.7998 46.2139 37.2697C45.7841 36.9728 45.3249 36.7308 44.8452 36.5451C45.3973 35.96 45.7366 35.1732 45.7366 34.3085V33.6759C45.7366 31.8721 44.2625 30.4057 42.4513 30.4057C40.6401 30.4057 39.166 31.8721 39.166 33.6759V34.3085C39.166 35.1732 39.5053 35.96 40.0574 36.5451C39.5778 36.7308 39.1186 36.9728 38.6887 37.2697L38.6887 37.2697C37.9175 37.8024 37.2763 38.483 36.7973 39.2705C36.0279 38.3272 35.4901 37.1801 35.2753 35.9051C35.2074 35.502 34.8238 35.2308 34.4201 35.2981L34.4201 35.2981C34.0159 35.3655 33.7425 35.7466 33.8104 36.1499L33.8104 36.1499C34.1492 38.1606 35.1979 40.0006 36.7632 41.3314C38.3464 42.6774 40.3665 43.4186 42.4512 43.4186C47.2822 43.4186 51.2131 39.507 51.2131 34.6979C51.2131 29.8887 47.2823 25.977 42.4513 25.977C42.0031 25.977 41.5528 26.0111 41.1126 26.0783ZM40.6513 33.6758C40.6513 32.6887 41.4585 31.8847 42.4513 31.8847C43.4441 31.8847 44.2513 32.6887 44.2513 33.6758V34.3085C44.2513 35.2955 43.4441 36.0995 42.4513 36.0995C41.4585 36.0995 40.6513 35.2955 40.6513 34.3085V33.6758ZM42.4513 41.9394C40.7335 41.9394 39.1439 41.3514 37.8911 40.352C38.7625 38.6522 40.5014 37.5787 42.4513 37.5787C44.3971 37.5787 46.1326 38.6477 47.0058 40.3412C45.7581 41.3406 44.1738 41.9394 42.4513 41.9394Z" fill="#0A2235" stroke="black" stroke-width="0.181416"/>
        <path d="M48.4726 49.2068H39.2147C38.805 49.2068 38.472 49.5375 38.472 49.9464C38.472 50.3552 38.805 50.6859 39.2147 50.6859H48.4726C48.8824 50.6859 49.2153 50.3552 49.2153 49.9464C49.2153 49.5375 48.8823 49.2068 48.4726 49.2068Z" fill="#0A2235" stroke="black" stroke-width="0.181416"/>
        <path d="M48.4726 45.573H39.2147C38.805 45.573 38.472 45.9038 38.472 46.3126C38.472 46.7214 38.805 47.0522 39.2147 47.0522H48.4726C48.8824 47.0522 49.2153 46.7214 49.2153 46.3126C49.2153 45.9038 48.8823 45.573 48.4726 45.573Z" fill="#0A2235" stroke="black" stroke-width="0.181416"/>
        <path d="M36.3624 27.1473L36.3624 27.1473C36.0723 26.8588 35.6024 26.8588 35.3124 27.1473L35.3123 27.1473L33.2531 29.1967L32.5916 28.5383L32.5915 28.5383C32.3014 28.2498 31.8316 28.2498 31.5415 28.5383L31.5415 28.5383C31.2513 28.8272 31.2513 29.2957 31.5415 29.5846L32.7281 30.7655L32.7281 30.7655C32.8731 30.9098 33.0632 30.982 33.2531 30.982C33.4429 30.982 33.633 30.9098 33.7781 30.7656L33.7781 30.7656L36.3624 28.1936L36.3624 28.1936C36.6526 27.9047 36.6526 27.4362 36.3624 27.1473Z" fill="#0A2235" stroke="black" stroke-width="0.181416"/>
        <path d="M33.9757 23.3815C30.9782 23.3815 28.5389 25.8086 28.5389 28.793C28.5389 31.7774 30.9782 34.2044 33.9757 34.2044C36.9733 34.2044 39.4125 31.7774 39.4125 28.793C39.4125 25.8086 36.9733 23.3815 33.9757 23.3815ZM33.9757 32.7253C31.7966 32.7253 30.0243 30.9608 30.0243 28.793C30.0243 26.6252 31.7966 24.8607 33.9757 24.8607C36.1549 24.8607 37.9272 26.6252 37.9272 28.793C37.9272 30.9608 36.1549 32.7253 33.9757 32.7253Z" fill="#0A2235" stroke="black" stroke-width="0.181416"/>
    </g>
    <defs>
        <clipPath id="clip0">
            <rect width="82" height="65" fill="white"/>
        </clipPath>
    </defs>
</svg>
