<?xml version="1.0" encoding="utf-8"?>
<svg width="81px" height="65px" viewBox="0 0 84 69" fill="none" xmlns="http://www.w3.org/2000/svg">
  <g clip-path="url(#clip0)" transform="matrix(1, 0, 0, 1, -8.079082, -11.420786)">
    <path fill-rule="evenodd" clip-rule="evenodd" d="M62.6793 13.2627C69.7014 15.4255 76.1513 19.0435 80.988 24.4988C86.395 30.5973 91.0191 37.7423 91.4344 45.6953C91.8719 54.0715 88.8542 62.4346 83.2963 68.6968C77.828 74.858 69.8117 78.5911 61.4186 79.5146C53.6627 80.3679 46.5796 76.2538 39.1921 73.5494C31.603 70.7713 23.1844 69.4529 17.769 63.5355C11.8684 57.0881 6.47019 48.2756 8.5237 40.0388C10.5609 31.8675 20.9745 29.442 27.595 24.1227C32.6161 20.0885 36.35 14.6014 42.5863 12.671C49.0798 10.661 56.0878 11.2325 62.6793 13.2627Z" fill="#C3D6EB"/>
    <path d="M26.6016 74.4181H79.9744C84.2105 74.4181 87.6576 70.9814 87.6576 66.7558V21.5806C87.6576 17.3556 84.2105 13.9183 79.9744 13.9183H26.6016C22.3655 13.9183 18.9183 17.3556 18.9183 21.5806V66.7558C18.9183 70.9814 22.3655 74.4181 26.6016 74.4181ZM21.346 21.5806C21.346 18.6912 23.7036 16.3397 26.6016 16.3397H79.9744C82.8723 16.3397 85.23 18.6912 85.23 21.5806V66.7558C85.23 69.6452 82.8723 71.9967 79.9744 71.9967H26.6016C23.7036 71.9967 21.346 69.6452 21.346 66.7558V21.5806Z" fill="#0A2235" stroke="#C3D6EB" stroke-width="0.163313"/>
    <path d="M38.4146 27.0392C36.4846 27.0392 34.9134 25.4721 34.9134 23.5479C34.9134 21.6231 36.4845 20.0566 38.4146 20.0566C40.3453 20.0566 41.9158 21.623 41.9158 23.5479C41.9158 25.4721 40.3453 27.0392 38.4146 27.0392ZM38.4146 22.1513C37.6432 22.1513 37.0144 22.7774 37.0144 23.5479C37.0144 24.3184 37.6432 24.9444 38.4146 24.9444C39.1867 24.9444 39.8148 24.3184 39.8148 23.5479C39.8148 22.7774 39.1867 22.1513 38.4146 22.1513Z" fill="#0A2235" stroke="#C3D6EB" stroke-width="0.163313"/>
    <path d="M27.4066 27.0045C25.4759 27.0045 23.9054 25.438 23.9054 23.5132C23.9054 21.5884 25.4759 20.0219 27.4066 20.0219C29.3372 20.0219 30.9077 21.5884 30.9077 23.5132C30.9077 25.438 29.3372 27.0045 27.4066 27.0045ZM27.4066 22.1167C26.6351 22.1167 26.0064 22.7433 26.0064 23.5132C26.0064 24.2837 26.6351 24.9098 27.4066 24.9098C28.1786 24.9098 28.8067 24.2837 28.8067 23.5132C28.8067 22.7434 28.1786 22.1167 27.4066 22.1167Z" fill="#0A2235" stroke="#C3D6EB" stroke-width="0.163313"/>
    <path d="M49.4228 27.0732C47.4927 27.0732 45.9222 25.5067 45.9222 23.5819C45.9222 21.6577 47.4927 20.0912 49.4228 20.0912C51.3535 20.0912 52.9239 21.6577 52.9239 23.5819C52.9239 25.5067 51.3535 27.0732 49.4228 27.0732ZM49.4228 22.1854C48.6513 22.1854 48.0232 22.8115 48.0232 23.5819C48.0232 24.3524 48.6513 24.9785 49.4228 24.9785C50.1948 24.9785 50.8229 24.3524 50.8229 23.5819C50.8229 22.8114 50.1948 22.1854 49.4228 22.1854Z" fill="#0A2235" stroke="#C3D6EB" stroke-width="0.163313"/>
    <rect x="21.2722" y="29.8834" width="65.3208" height="2.11133" fill="#0A2235"/>
    <rect x="43.8165" y="38.0897" width="19.999" height="2.18171" rx="0.727237" fill="#0A2235"/>
    <rect x="39.8168" y="52.998" width="13.8175" height="2.18171" rx="0.727237" fill="#0A2235"/>
    <rect x="54.3615" y="52.998" width="14.5447" height="2.18171" rx="0.727237" fill="#0A2235"/>
    <rect x="52.907" y="55.1797" width="5.45428" height="2.18171" transform="rotate(-90 52.907 55.1797)" fill="#0A2235"/>
    <rect x="39.4531" y="58.4523" width="5.45428" height="2.18171" rx="0.727237" transform="rotate(-90 39.4531 58.4523)" fill="#0A2235"/>
    <rect x="66.7245" y="58.8159" width="5.45428" height="2.18171" rx="0.727237" transform="rotate(-90 66.7245 58.8159)" fill="#0A2235"/>
    <rect x="31.2717" y="57.9068" width="18.1809" height="7.63599" rx="0.909046" stroke="#0A2235" stroke-width="1.81809"/>
    <rect x="58.5431" y="57.9068" width="18.1809" height="7.63599" rx="0.909046" stroke="#0A2235" stroke-width="1.81809"/>
    <rect x="44.7256" y="42.6349" width="18.1809" height="7.63599" rx="0.909046" stroke="#0A2235" stroke-width="1.81809"/>
  </g>
  <defs>
    <clipPath id="clip0">
      <rect width="102" height="92" fill="white"/>
    </clipPath>
  </defs>
</svg>