<svg class="m-how_icon m-how_left" id="starting" version="1.1" xmlns="http://www.w3.org/2000/svg" xmlns:xlink="http://www.w3.org/1999/xlink" viewBox="0 0 183 142">
    <g stroke="#070707" fill="none" stroke-width="2">
        <rect ry="5" rx="5" y="1" x="1" height="118" width="169" style="stroke-dasharray: 574px; stroke-dashoffset: 0px;"></rect>
        <rect fill="#070707" ry="5" rx="5" y="1" x="1" height="118" width="169" style="opacity: 1;"></rect>
        <rect stroke="#fefefe" ry="4" rx="4" y="3" x="3" height="96" width="165" style="stroke-dasharray: 522px; stroke-dashoffset: 0px;"></rect>
        <rect stroke="#fefefe" fill="#fefefe" ry="4" rx="4" y="3" x="3" height="96" width="165" style="opacity: 1;"></rect>
        <rect ry="1.5" rx="1.5" y="131" x="60" height="3" width="51" style="stroke-dasharray: 108px; stroke-dashoffset: 0px;"></rect>
        <path d="m 78,119 -4,12" style="stroke-dasharray: 12.6491px; stroke-dashoffset: 0px;"></path>
        <path d="m 94,119 4,12" style="stroke-dasharray: 12.6491px; stroke-dashoffset: 0px;"></path>
        <path stroke="#e30613" d="m 13,23v-6" style="stroke-dasharray: 6px; stroke-dashoffset: 0px;"></path>
        <path stroke="#e30613" d="m 18,23v-9" style="stroke-dasharray: 9px; stroke-dashoffset: 0px;"></path>
        <path stroke="#e30613" d="m 23,23v-14" style="stroke-dasharray: 14px; stroke-dashoffset: 0px;"></path>
        <path stroke="#e30613" d="m 28,23v-9" style="stroke-dasharray: 9px; stroke-dashoffset: 0px;"></path>
        <path stroke="#e30613" d="m 33,23v-6" style="stroke-dasharray: 6px; stroke-dashoffset: 0px;"></path>
        <path d="m 40,14h20v8h-20v-8h1" style="stroke-dasharray: 57px; stroke-dashoffset: 0px;"></path>
        <path d="m 65,14h20v8h-20v-8h1" style="stroke-dasharray: 57px; stroke-dashoffset: 0px;"></path>
        <path d="m 90,14h20v8h-20v-8h1" style="stroke-dasharray: 57px; stroke-dashoffset: 0px;"></path>
        <path d="m 115,14h20v8h-20v-8h1" style="stroke-dasharray: 57px; stroke-dashoffset: 0px;"></path>
        <path d="m 140,14h20v8h-20v-8h1" style="stroke-dasharray: 57px; stroke-dashoffset: 0px;"></path>
        <rect width="149" height="33" x="12" y="34" rx="2" ry="2" style="stroke-dasharray: 364px; stroke-dashoffset: 0px;"></rect>
        <path stroke="none" fill="#070707" d="m 12,62 15,0 0,-9 10,0 0,-6 13,0 0,10 7,0 0,-6 11,0 0,11 5,0 0,-10 4,-7 4,7 0,9 6,0 0,-18 8,0 0,12 10,0 0,6 4,0 0,-10 8,0 0,10 3,0 0,-12 5,-8 5,8 0,3 15,0 0,9 16,0 0,6 -149,0 z" style="opacity: 1;"></path>
        <path d="m 152,47 3,3 -3,3" style="stroke-dasharray: 8.48528px; stroke-dashoffset: 0px;"></path>
        <path d="m 21,47 -3,3 3,3" style="stroke-dasharray: 8.48528px; stroke-dashoffset: 0px;"></path>
        <rect width="23" height="23" x="12" y="78" rx="2" ry="2" style="stroke-dasharray: 92px; stroke-dashoffset: 0px;"></rect>
        <path stroke="none" fill="#e30613" d="m 32,84 a 3,3 0 1 1 -6,0 3,3 0 1 1 6,0 z" style="opacity: 1;"></path>
        <path stroke="none" fill="#070707" d="m 12,92 7,-4 7,6 4,-2 5,8 -1,1 -21,0 -1,-1 z" style="opacity: 1;"></path>
        <path d="m 40,80 25,0" style="stroke-dasharray: 25px; stroke-dashoffset: 0px;"></path>
        <path d="m 40,86 25,0" style="stroke-dasharray: 25px; stroke-dashoffset: 0px;"></path>
        <path d="m 40,92 25,0" style="stroke-dasharray: 25px; stroke-dashoffset: 0px;"></path>
        <path d="m 40,98 18,0" style="stroke-dasharray: 18px; stroke-dashoffset: 0px;"></path>
        <rect width="23" height="23" x="72" y="78" rx="2" ry="2" style="stroke-dasharray: 92px; stroke-dashoffset: 0px;"></rect>
        <path stroke="none" fill="#070707" d="m 73,101 -1,-1 0,-5 c 0,0 4,-5 6,-5 2,0 3,3 5,3 2,0 3,-6 6,-6 3,0 6,8 6,8 l 0,5 -1,1 z" style="opacity: 1;"></path>
        <path d="m 100,80 25,0" style="stroke-dasharray: 25px; stroke-dashoffset: 0px;"></path>
        <path d="m 100,86 25,0" style="stroke-dasharray: 25px; stroke-dashoffset: 0px;"></path>
        <path d="m 100,92 25,0" style="stroke-dasharray: 25px; stroke-dashoffset: 0px;"></path>
        <path d="m 100,98 22,0" style="stroke-dasharray: 22px; stroke-dashoffset: 0px;"></path>
        <path stroke="none" fill="#070707" d="m 161,93 -14,0 c 0,0 -3,-1 -2,-3 1,-2 4,-2 4,-2 0,0 -0,-2 2,-3 2,-1 3,0 3,0 0,0 1,-3 4,-3 3,0 4,2 4,5 0,0 4,-1 4,2 1,3 -4,4 -4,4 z" style="opacity: 1;"></path>
        <rect width="27" height="24" x="139" y="76" rx="2" ry="2" style="stroke-dasharray: 102px; stroke-dashoffset: 0px;"></rect>
        <rect ry="3" rx="3" y="51" x="132" height="90" width="50" style="stroke-dasharray: 280px; stroke-dashoffset: 0px;"></rect>
        <rect fill="#070707" ry="3" rx="3" y="51" x="132" height="90" width="50" style="opacity: 1;"></rect>
        <path stroke="#fefefe" d="m135,61h44v70h-44v-70h1" style="stroke-dasharray: 229px; stroke-dashoffset: 0px;"></path>
        <path fill="#fefefe" stroke="none" d="m135,61h44v70h-44v-70z" style="opacity: 1;"></path>
        <path stroke="#fefefe" stroke-width="1" d="m 161,137 c 0,2 -1.5,3.5 -3.5,3.5 -2,0 -3.5,-1.5 -3.5,-3.5 0,-2 1.5,-3.5 3.5,-3.5 2,0 3.5,1.5 3.5,3.5 z" style="stroke-dasharray: 22.1118px; stroke-dashoffset: 0px;"></path>
        <path stroke="#fefefe" stroke-width="1" fill="#fefefe" d="m 161,137 c 0,2 -1.5,3.5 -3.5,3.5 -2,0 -3.5,-1.5 -3.5,-3.5 0,-2 1.5,-3.5 3.5,-3.5 2,0 3.5,1.5 3.5,3.5 z" style="opacity: 1;"></path>
        <path stroke="#e30613" d="m 147,80v-6" style="stroke-dasharray: 6px; stroke-dashoffset: 0px;"></path>
        <path stroke="#e30613" d="m 152,80v-9" style="stroke-dasharray: 9px; stroke-dashoffset: 0px;"></path>
        <path stroke="#e30613" d="m 157,80v-14" style="stroke-dasharray: 14px; stroke-dashoffset: 0px;"></path>
        <path stroke="#e30613" d="m 162,80v-9" style="stroke-dasharray: 9px; stroke-dashoffset: 0px;"></path>
        <path stroke="#e30613" d="m 167,80v-6" style="stroke-dasharray: 6px; stroke-dashoffset: 0px;"></path>
        <path d="m140,90h34v6h-34v-6h1" style="stroke-dasharray: 81px; stroke-dashoffset: 0px;"></path>
        <path d="m140,100h34v6h-34v-6h1" style="stroke-dasharray: 81px; stroke-dashoffset: 0px;"></path>
        <path d="m140,110h34v6h-34v-6h1" style="stroke-dasharray: 81px; stroke-dashoffset: 0px;"></path>
        <path d="m140,120h34v6h-34v-6h1" style="stroke-dasharray: 81px; stroke-dashoffset: -1.84741e-13px;"></path>
    </g>
</svg>
