<svg id="svg" version="1.1" xmlns="http://www.w3.org/2000/svg" xmlns:xlink="http://www.w3.org/1999/xlink" width="400" height="389.61038961038963" viewBox="0, 0, 400,389.61038961038963"><g id="svgg"><path id="path0" d="M43.275 5.441 C 36.485 5.700,34.141 6.166,32.092 7.668 C 31.410 8.168,30.708 8.577,30.533 8.576 C 29.953 8.575,22.222 12.570,22.222 12.871 C 22.222 13.033,20.906 14.516,19.298 16.167 C 17.690 17.817,16.374 19.332,16.374 19.533 C 16.374 19.734,15.936 20.593,15.400 21.442 C 14.864 22.292,14.425 23.177,14.425 23.410 C 14.425 23.643,14.008 24.392,13.499 25.075 C 12.468 26.456,11.605 28.263,10.858 30.604 C 10.272 32.442,9.885 320.901,10.439 343.275 L 10.757 356.140 12.043 358.382 C 12.751 359.615,13.491 360.723,13.688 360.845 C 13.886 360.967,14.311 361.625,14.634 362.307 C 15.808 364.787,17.011 366.421,19.591 369.039 C 21.038 370.507,22.222 371.923,22.222 372.185 C 22.222 372.446,23.406 373.211,24.854 373.883 C 29.190 375.896,31.762 377.179,31.969 377.431 C 33.977 379.883,26.720 379.789,201.754 379.627 C 377.260 379.465,364.915 379.664,369.823 376.915 C 371.518 375.966,373.782 374.864,374.854 374.466 C 376.733 373.768,377.391 373.231,379.922 370.327 C 380.565 369.589,381.618 368.550,382.261 368.019 C 382.904 367.487,384.038 365.825,384.780 364.326 C 385.522 362.826,386.854 360.634,387.741 359.454 C 390.449 355.855,390.287 366.436,390.268 194.085 C 390.249 20.277,390.381 28.613,387.595 25.086 C 386.774 24.047,385.358 21.793,384.450 20.078 C 383.541 18.363,382.416 16.696,381.950 16.374 C 381.484 16.053,380.216 15.000,379.133 14.035 C 376.460 11.654,375.788 11.208,371.735 9.130 C 369.805 8.141,368.138 7.211,368.031 7.064 C 367.924 6.917,366.520 6.454,364.912 6.035 C 361.951 5.263,62.490 4.710,43.275 5.441 M359.763 15.990 C 363.207 16.352,367.056 17.999,368.047 19.534 C 368.163 19.713,368.990 20.118,369.884 20.434 C 371.898 21.144,373.879 22.574,373.879 23.315 C 373.879 23.942,376.406 27.519,377.168 27.971 C 377.440 28.133,378.127 29.435,378.695 30.866 L 379.727 33.466 379.727 192.200 L 379.727 350.935 378.757 353.825 C 378.050 355.931,377.347 357.166,376.167 358.377 C 375.275 359.291,374.319 360.579,374.040 361.240 C 373.442 362.659,373.176 362.886,370.383 364.367 C 369.211 364.989,367.942 365.872,367.563 366.330 C 367.184 366.789,365.729 367.622,364.330 368.182 L 361.785 369.201 200.678 369.193 L 39.571 369.184 36.969 368.266 C 34.741 367.479,30.534 364.656,30.084 363.645 C 30.013 363.484,29.636 363.353,29.248 363.353 C 28.456 363.353,26.121 360.892,26.121 360.058 C 26.121 359.762,25.989 359.461,25.828 359.389 C 24.909 358.980,22.265 354.658,21.696 352.632 C 20.503 348.386,20.466 342.535,20.663 187.719 L 20.858 34.113 21.711 31.699 C 22.181 30.371,23.365 28.266,24.343 27.021 C 25.320 25.775,26.120 24.535,26.121 24.265 C 26.121 23.476,28.135 21.616,29.825 20.844 C 30.682 20.452,31.998 19.668,32.749 19.103 C 36.145 16.542,36.832 16.302,41.637 15.999 C 48.755 15.550,355.502 15.541,359.763 15.990 M53.454 43.901 C 52.894 44.138,51.782 45.286,50.982 46.453 L 49.527 48.575 49.508 162.007 C 49.487 285.745,49.345 276.046,51.424 293.177 C 51.857 296.747,53.381 301.771,54.381 302.924 C 55.393 304.092,57.310 308.361,57.310 309.449 C 57.310 310.258,58.568 312.302,60.493 314.620 C 61.812 316.208,61.900 316.325,63.150 318.129 C 63.671 318.879,65.109 320.478,66.346 321.682 C 67.583 322.886,68.773 324.338,68.990 324.909 C 69.207 325.480,69.694 326.075,70.072 326.231 C 71.366 326.766,75.047 329.341,76.538 330.753 C 77.358 331.529,78.235 332.164,78.488 332.164 C 79.404 332.165,83.734 334.442,84.268 335.204 C 84.853 336.039,88.848 337.513,91.423 337.844 C 94.451 338.233,103.146 340.002,105.263 340.659 C 109.426 341.953,117.054 341.421,124.172 339.341 C 126.741 338.590,129.997 338.012,131.657 338.012 C 133.166 338.012,137.573 336.023,138.615 334.872 C 138.993 334.455,139.542 334.113,139.835 334.113 C 141.160 334.113,145.364 331.727,146.962 330.069 C 147.918 329.077,148.904 328.265,149.153 328.265 C 149.402 328.265,150.462 327.593,151.509 326.770 C 155.295 323.796,160.234 322.965,160.234 325.303 C 160.234 325.813,163.268 328.265,163.899 328.265 C 164.121 328.265,165.186 329.116,166.265 330.155 C 167.672 331.511,169.136 332.413,171.447 333.347 C 173.219 334.063,174.973 334.923,175.346 335.258 C 176.767 336.537,179.886 337.717,182.776 338.070 C 185.389 338.390,188.336 338.971,194.347 340.352 C 197.806 341.147,198.778 341.252,202.144 341.193 C 204.452 341.152,208.255 340.609,213.255 339.605 C 217.437 338.766,221.556 337.960,222.410 337.816 C 223.264 337.671,224.657 337.217,225.505 336.807 C 226.353 336.398,227.277 336.062,227.559 336.062 C 227.840 336.062,228.070 335.880,228.070 335.656 C 228.070 335.433,229.254 334.731,230.702 334.097 C 232.149 333.463,233.638 332.769,234.010 332.554 C 234.383 332.339,234.931 332.164,235.228 332.164 C 235.526 332.164,236.829 331.243,238.124 330.117 C 239.419 328.991,241.096 327.632,241.851 327.096 C 242.605 326.559,243.805 325.381,244.516 324.476 C 245.227 323.572,246.134 322.721,246.532 322.586 C 247.359 322.303,249.484 320.083,249.501 319.483 C 249.508 319.263,250.220 318.385,251.084 317.533 C 252.539 316.100,254.874 312.155,255.544 309.997 C 255.819 309.113,256.047 308.787,258.002 306.497 C 258.490 305.926,258.962 305.107,259.050 304.678 C 259.138 304.250,259.660 301.969,260.210 299.610 C 260.760 297.251,261.210 295.012,261.210 294.634 C 261.209 293.958,261.764 292.768,262.617 291.618 C 264.220 289.458,264.315 283.448,264.262 188.499 C 264.205 88.075,264.180 91.862,264.907 90.465 C 266.258 87.869,267.049 87.606,272.666 87.886 C 275.477 88.026,278.981 87.987,280.451 87.800 C 281.921 87.612,284.026 87.603,285.129 87.780 C 286.232 87.957,288.477 88.271,290.117 88.479 C 295.600 89.174,298.338 91.052,303.482 97.643 C 306.901 102.023,306.604 90.734,306.715 220.468 C 306.818 342.000,306.762 338.331,308.549 340.533 L 309.357 341.529 327.485 341.561 C 337.456 341.578,345.833 341.577,346.100 341.557 C 346.847 341.501,349.708 338.776,350.747 337.130 L 351.676 335.658 351.645 221.224 C 351.612 96.137,351.731 103.134,349.513 95.834 C 349.167 94.695,348.621 92.039,348.300 89.933 C 347.720 86.128,346.580 83.163,345.542 82.765 C 344.933 82.531,342.915 78.403,342.530 76.602 C 342.392 75.955,341.656 74.747,340.896 73.918 C 340.136 73.088,339.111 71.770,338.617 70.988 C 338.123 70.205,337.039 68.834,336.209 67.940 C 334.046 65.613,333.450 64.885,332.960 63.968 C 332.721 63.523,332.366 63.158,332.170 63.158 C 331.456 63.158,328.235 60.727,327.267 59.458 C 326.721 58.742,325.534 57.808,324.630 57.383 C 323.725 56.958,322.287 55.889,321.434 55.009 C 319.983 53.511,316.717 51.916,313.840 51.301 C 312.959 51.112,311.771 50.300,309.840 48.562 C 309.435 48.198,306.552 47.451,302.822 46.743 C 299.340 46.083,295.351 45.164,293.957 44.701 C 291.438 43.865,291.215 43.860,257.280 43.860 L 223.136 43.860 221.802 44.879 C 219.264 46.817,219.438 38.324,219.365 163.993 C 219.294 286.072,219.397 279.488,217.454 285.965 C 216.706 288.460,214.711 291.152,213.566 291.213 C 213.415 291.221,212.425 292.044,211.365 293.040 C 205.791 298.285,192.165 298.276,186.838 293.025 C 185.835 292.037,184.834 291.228,184.613 291.228 C 183.913 291.228,182.175 288.718,181.904 287.314 C 181.664 286.075,180.755 283.764,178.914 279.718 C 178.229 278.210,178.202 274.458,178.226 184.526 L 178.251 90.904 179.289 89.910 C 181.123 88.152,184.779 87.677,195.508 87.800 C 209.243 87.958,208.623 89.100,208.475 63.938 L 208.382 48.148 207.185 46.004 L 205.988 43.860 161.376 43.665 C 136.839 43.558,114.403 43.558,111.518 43.665 L 106.271 43.860 105.249 46.551 L 104.227 49.243 104.350 65.850 C 104.474 82.704,104.720 85.938,105.964 87.062 C 106.525 87.569,108.652 87.689,119.660 87.839 L 132.693 88.016 133.773 89.330 L 134.853 90.643 134.971 98.635 C 135.035 103.031,135.000 145.838,134.893 193.762 L 134.698 280.897 133.448 283.236 C 132.761 284.522,131.771 286.452,131.249 287.524 C 130.726 288.596,129.769 289.972,129.122 290.581 C 128.475 291.190,127.182 292.418,126.249 293.310 C 123.566 295.874,122.734 296.167,116.601 296.699 C 111.991 297.099,106.902 296.532,105.873 295.503 C 105.666 295.296,105.190 295.127,104.815 295.127 C 104.439 295.127,103.992 294.891,103.821 294.603 C 103.649 294.315,102.982 293.754,102.339 293.357 C 100.336 292.118,98.739 290.335,97.467 287.916 C 96.793 286.635,96.119 285.497,95.968 285.386 C 93.843 283.828,93.933 289.083,93.897 164.529 L 93.865 49.721 93.000 47.068 C 92.524 45.610,91.947 44.228,91.717 43.998 C 91.121 43.402,54.848 43.310,53.454 43.901 " stroke="none" fill="#030405" fill-rule="evenodd"></path><path id="path1" d="M0.000 194.932 L 0.000 389.864 200.000 389.864 L 400.000 389.864 400.000 194.932 L 400.000 0.000 200.000 0.000 L 0.000 0.000 0.000 194.932 M364.912 6.035 C 366.520 6.454,367.924 6.917,368.031 7.064 C 368.138 7.211,369.805 8.141,371.735 9.130 C 375.788 11.208,376.460 11.654,379.133 14.035 C 380.216 15.000,381.484 16.053,381.950 16.374 C 382.416 16.696,383.541 18.363,384.450 20.078 C 385.358 21.793,386.774 24.047,387.595 25.086 C 390.381 28.613,390.249 20.277,390.268 194.085 C 390.287 366.436,390.449 355.855,387.741 359.454 C 386.854 360.634,385.522 362.826,384.780 364.326 C 384.038 365.825,382.904 367.487,382.261 368.019 C 381.618 368.550,380.565 369.589,379.922 370.327 C 377.391 373.231,376.733 373.768,374.854 374.466 C 373.782 374.864,371.518 375.966,369.823 376.915 C 364.915 379.664,377.260 379.465,201.754 379.627 C 26.720 379.789,33.977 379.883,31.969 377.431 C 31.762 377.179,29.190 375.896,24.854 373.883 C 23.406 373.211,22.222 372.446,22.222 372.185 C 22.222 371.923,21.038 370.507,19.591 369.039 C 17.011 366.421,15.808 364.787,14.634 362.307 C 14.311 361.625,13.886 360.967,13.688 360.845 C 13.491 360.723,12.751 359.615,12.043 358.382 L 10.757 356.140 10.439 343.275 C 9.885 320.901,10.272 32.442,10.858 30.604 C 11.605 28.263,12.468 26.456,13.499 25.075 C 14.008 24.392,14.425 23.643,14.425 23.410 C 14.425 23.177,14.864 22.292,15.400 21.442 C 15.936 20.593,16.374 19.734,16.374 19.533 C 16.374 19.332,17.690 17.817,19.298 16.167 C 20.906 14.516,22.222 13.033,22.222 12.871 C 22.222 12.570,29.953 8.575,30.533 8.576 C 30.708 8.577,31.410 8.168,32.092 7.668 C 35.658 5.055,25.968 5.191,205.848 5.235 C 359.485 5.272,362.035 5.285,364.912 6.035 M41.637 15.999 C 36.832 16.302,36.145 16.542,32.749 19.103 C 31.998 19.668,30.682 20.452,29.825 20.844 C 28.135 21.616,26.121 23.476,26.121 24.265 C 26.120 24.535,25.320 25.775,24.343 27.021 C 23.365 28.266,22.181 30.371,21.711 31.699 L 20.858 34.113 20.663 187.719 C 20.466 342.535,20.503 348.386,21.696 352.632 C 22.265 354.658,24.909 358.980,25.828 359.389 C 25.989 359.461,26.121 359.762,26.121 360.058 C 26.121 360.892,28.456 363.353,29.248 363.353 C 29.636 363.353,30.013 363.484,30.084 363.645 C 30.534 364.656,34.741 367.479,36.969 368.266 L 39.571 369.184 200.678 369.193 L 361.785 369.201 364.330 368.182 C 365.729 367.622,367.184 366.789,367.563 366.330 C 367.942 365.872,369.211 364.989,370.383 364.367 C 373.176 362.886,373.442 362.659,374.040 361.240 C 374.319 360.579,375.275 359.291,376.167 358.377 C 377.347 357.166,378.050 355.931,378.757 353.825 L 379.727 350.935 379.727 192.200 L 379.727 33.466 378.695 30.866 C 378.127 29.435,377.440 28.133,377.168 27.971 C 376.406 27.519,373.879 23.942,373.879 23.315 C 373.879 22.574,371.898 21.144,369.884 20.434 C 368.990 20.118,368.163 19.713,368.047 19.534 C 367.056 17.999,363.207 16.352,359.763 15.990 C 355.502 15.541,48.755 15.550,41.637 15.999 M91.717 43.998 C 91.947 44.228,92.524 45.610,93.000 47.068 L 93.865 49.721 93.897 164.529 C 93.933 289.083,93.843 283.828,95.968 285.386 C 96.119 285.497,96.793 286.635,97.467 287.916 C 98.739 290.335,100.336 292.118,102.339 293.357 C 102.982 293.754,103.649 294.315,103.821 294.603 C 103.992 294.891,104.439 295.127,104.815 295.127 C 105.190 295.127,105.666 295.296,105.873 295.503 C 106.902 296.532,111.991 297.099,116.601 296.699 C 122.734 296.167,123.566 295.874,126.249 293.310 C 127.182 292.418,128.475 291.190,129.122 290.581 C 129.769 289.972,130.726 288.596,131.249 287.524 C 131.771 286.452,132.761 284.522,133.448 283.236 L 134.698 280.897 134.893 193.762 C 135.000 145.838,135.035 103.031,134.971 98.635 L 134.853 90.643 133.773 89.330 L 132.693 88.016 119.660 87.839 C 108.652 87.689,106.525 87.569,105.964 87.062 C 104.720 85.938,104.474 82.704,104.350 65.850 L 104.227 49.243 105.249 46.551 L 106.271 43.860 111.518 43.665 C 114.403 43.558,136.839 43.558,161.376 43.665 L 205.988 43.860 207.185 46.004 L 208.382 48.148 208.475 63.938 C 208.623 89.100,209.243 87.958,195.508 87.800 C 184.779 87.677,181.123 88.152,179.289 89.910 L 178.251 90.904 178.226 184.526 C 178.202 274.458,178.229 278.210,178.914 279.718 C 180.755 283.764,181.664 286.075,181.904 287.314 C 182.175 288.718,183.913 291.228,184.613 291.228 C 184.834 291.228,185.835 292.037,186.838 293.025 C 192.165 298.276,205.791 298.285,211.365 293.040 C 212.425 292.044,213.415 291.221,213.566 291.213 C 214.711 291.152,216.706 288.460,217.454 285.965 C 219.397 279.488,219.294 286.072,219.365 163.993 C 219.438 38.324,219.264 46.817,221.802 44.879 L 223.136 43.860 257.280 43.860 C 291.215 43.860,291.438 43.865,293.957 44.701 C 295.351 45.164,299.340 46.083,302.822 46.743 C 306.552 47.451,309.435 48.198,309.840 48.562 C 311.771 50.300,312.959 51.112,313.840 51.301 C 316.717 51.916,319.983 53.511,321.434 55.009 C 322.287 55.889,323.725 56.958,324.630 57.383 C 325.534 57.808,326.721 58.742,327.267 59.458 C 328.235 60.727,331.456 63.158,332.170 63.158 C 332.366 63.158,332.721 63.523,332.960 63.968 C 333.450 64.885,334.046 65.613,336.209 67.940 C 337.039 68.834,338.123 70.205,338.617 70.988 C 339.111 71.770,340.136 73.088,340.896 73.918 C 341.656 74.747,342.392 75.955,342.530 76.602 C 342.915 78.403,344.933 82.531,345.542 82.765 C 346.580 83.163,347.720 86.128,348.300 89.933 C 348.621 92.039,349.167 94.695,349.513 95.834 C 351.731 103.134,351.612 96.137,351.645 221.224 L 351.676 335.658 350.747 337.130 C 349.708 338.776,346.847 341.501,346.100 341.557 C 345.833 341.577,337.456 341.578,327.485 341.561 L 309.357 341.529 308.549 340.533 C 306.762 338.331,306.818 342.000,306.715 220.468 C 306.604 90.734,306.901 102.023,303.482 97.643 C 298.338 91.052,295.600 89.174,290.117 88.479 C 288.477 88.271,286.232 87.957,285.129 87.780 C 284.026 87.603,281.921 87.612,280.451 87.800 C 278.981 87.987,275.477 88.026,272.666 87.886 C 267.049 87.606,266.258 87.869,264.907 90.465 C 264.180 91.862,264.205 88.075,264.262 188.499 C 264.315 283.448,264.220 289.458,262.617 291.618 C 261.764 292.768,261.209 293.958,261.210 294.634 C 261.210 295.012,260.760 297.251,260.210 299.610 C 259.660 301.969,259.138 304.250,259.050 304.678 C 258.962 305.107,258.490 305.926,258.002 306.497 C 256.047 308.787,255.819 309.113,255.544 309.997 C 254.874 312.155,252.539 316.100,251.084 317.533 C 250.220 318.385,249.508 319.263,249.501 319.483 C 249.484 320.083,247.359 322.303,246.532 322.586 C 246.134 322.721,245.227 323.572,244.516 324.476 C 243.805 325.381,242.605 326.559,241.851 327.096 C 241.096 327.632,239.419 328.991,238.124 330.117 C 236.829 331.243,235.526 332.164,235.228 332.164 C 234.931 332.164,234.383 332.339,234.010 332.554 C 233.638 332.769,232.149 333.463,230.702 334.097 C 229.254 334.731,228.070 335.433,228.070 335.656 C 228.070 335.880,227.840 336.062,227.559 336.062 C 227.277 336.062,226.353 336.398,225.505 336.807 C 224.657 337.217,223.264 337.671,222.410 337.816 C 221.556 337.960,217.437 338.766,213.255 339.605 C 208.255 340.609,204.452 341.152,202.144 341.193 C 198.778 341.252,197.806 341.147,194.347 340.352 C 188.336 338.971,185.389 338.390,182.776 338.070 C 179.886 337.717,176.767 336.537,175.346 335.258 C 174.973 334.923,173.219 334.063,171.447 333.347 C 169.136 332.413,167.672 331.511,166.265 330.155 C 165.186 329.116,164.121 328.265,163.899 328.265 C 163.268 328.265,160.234 325.813,160.234 325.303 C 160.234 324.260,158.560 323.723,156.725 324.176 C 154.251 324.787,153.659 325.081,151.509 326.770 C 150.462 327.593,149.402 328.265,149.153 328.265 C 148.904 328.265,147.918 329.077,146.962 330.069 C 145.364 331.727,141.160 334.113,139.835 334.113 C 139.542 334.113,138.993 334.455,138.615 334.872 C 137.573 336.023,133.166 338.012,131.657 338.012 C 129.997 338.012,126.741 338.590,124.172 339.341 C 117.054 341.421,109.426 341.953,105.263 340.659 C 103.146 340.002,94.451 338.233,91.423 337.844 C 88.848 337.513,84.853 336.039,84.268 335.204 C 83.734 334.442,79.404 332.165,78.488 332.164 C 78.235 332.164,77.358 331.529,76.538 330.753 C 75.047 329.341,71.366 326.766,70.072 326.231 C 69.694 326.075,69.207 325.480,68.990 324.909 C 68.773 324.338,67.583 322.886,66.346 321.682 C 65.109 320.478,63.671 318.879,63.150 318.129 C 61.900 316.325,61.812 316.208,60.493 314.620 C 58.568 312.302,57.310 310.258,57.310 309.449 C 57.310 308.361,55.393 304.092,54.381 302.924 C 53.381 301.771,51.857 296.747,51.424 293.177 C 49.345 276.046,49.487 285.745,49.508 162.007 L 49.527 48.575 50.982 46.453 C 51.782 45.286,52.894 44.138,53.454 43.901 C 54.848 43.310,91.121 43.402,91.717 43.998 " stroke="none" fill="#ffffff" fill-rule="evenodd"></path></g></svg>
