<svg width="80" height="1517" viewBox="0 0 80 1517" fill="none" xmlns="http://www.w3.org/2000/svg">
    <circle cx="40" cy="40" r="39" stroke="#0A2235" stroke-width="2"/>
    <path d="M28.8 53.432C27.168 53.432 25.752 53.144 24.552 52.568C23.352 51.968 22.356 51.116 21.564 50.012C20.796 48.908 20.22 47.552 19.836 45.944C19.476 44.336 19.296 42.5 19.296 40.436C19.296 38.396 19.476 36.572 19.836 34.964C20.22 33.332 20.796 31.964 21.564 30.86C22.356 29.756 23.352 28.916 24.552 28.34C25.752 27.74 27.168 27.44 28.8 27.44C32.064 27.44 34.464 28.58 36 30.86C37.536 33.14 38.304 36.332 38.304 40.436C38.304 44.54 37.536 47.732 36 50.012C34.464 52.292 32.064 53.432 28.8 53.432ZM28.8 49.652C30.528 49.652 31.74 49.04 32.436 47.816C33.156 46.568 33.516 44.852 33.516 42.668V38.204C33.516 36.02 33.156 34.316 32.436 33.092C31.74 31.844 30.528 31.22 28.8 31.22C27.072 31.22 25.848 31.844 25.128 33.092C24.432 34.316 24.084 36.02 24.084 38.204V42.668C24.084 44.852 24.432 46.568 25.128 47.816C25.848 49.04 27.072 49.652 28.8 49.652ZM28.8 42.56C27.96 42.56 27.372 42.392 27.036 42.056C26.724 41.72 26.568 41.312 26.568 40.832V40.04C26.568 39.56 26.724 39.152 27.036 38.816C27.372 38.48 27.96 38.312 28.8 38.312C29.64 38.312 30.216 38.48 30.528 38.816C30.864 39.152 31.032 39.56 31.032 40.04V40.832C31.032 41.312 30.864 41.72 30.528 42.056C30.216 42.392 29.64 42.56 28.8 42.56ZM42.8619 53V49.148H49.7739V31.292H49.4499L43.9779 37.772L41.0259 35.288L47.2539 27.872H54.4899V49.148H60.1779V53H42.8619Z" fill="#0A2235"/>
    <circle cx="40" cy="399" r="39" stroke="#0A2235" stroke-width="2"/>
    <path d="M28.8 413.432C27.168 413.432 25.752 413.144 24.552 412.568C23.352 411.968 22.356 411.116 21.564 410.012C20.796 408.908 20.22 407.552 19.836 405.944C19.476 404.336 19.296 402.5 19.296 400.436C19.296 398.396 19.476 396.572 19.836 394.964C20.22 393.332 20.796 391.964 21.564 390.86C22.356 389.756 23.352 388.916 24.552 388.34C25.752 387.74 27.168 387.44 28.8 387.44C32.064 387.44 34.464 388.58 36 390.86C37.536 393.14 38.304 396.332 38.304 400.436C38.304 404.54 37.536 407.732 36 410.012C34.464 412.292 32.064 413.432 28.8 413.432ZM28.8 409.652C30.528 409.652 31.74 409.04 32.436 407.816C33.156 406.568 33.516 404.852 33.516 402.668V398.204C33.516 396.02 33.156 394.316 32.436 393.092C31.74 391.844 30.528 391.22 28.8 391.22C27.072 391.22 25.848 391.844 25.128 393.092C24.432 394.316 24.084 396.02 24.084 398.204V402.668C24.084 404.852 24.432 406.568 25.128 407.816C25.848 409.04 27.072 409.652 28.8 409.652ZM28.8 402.56C27.96 402.56 27.372 402.392 27.036 402.056C26.724 401.72 26.568 401.312 26.568 400.832V400.04C26.568 399.56 26.724 399.152 27.036 398.816C27.372 398.48 27.96 398.312 28.8 398.312C29.64 398.312 30.216 398.48 30.528 398.816C30.864 399.152 31.032 399.56 31.032 400.04V400.832C31.032 401.312 30.864 401.72 30.528 402.056C30.216 402.392 29.64 402.56 28.8 402.56ZM59.3859 413H41.6739V408.608L49.7379 401.732C51.0819 400.58 52.0779 399.536 52.7259 398.6C53.3739 397.64 53.6979 396.62 53.6979 395.54V395.18C53.6979 393.98 53.3619 393.068 52.6899 392.444C52.0179 391.82 51.0819 391.508 49.8819 391.508C48.5619 391.508 47.5539 391.868 46.8579 392.588C46.1619 393.308 45.6579 394.196 45.3459 395.252L41.2419 393.704C41.5059 392.888 41.8779 392.108 42.3579 391.364C42.8619 390.596 43.4739 389.924 44.1939 389.348C44.9379 388.772 45.8139 388.316 46.8219 387.98C47.8299 387.62 48.9819 387.44 50.2779 387.44C51.6219 387.44 52.8099 387.632 53.8419 388.016C54.8979 388.376 55.7859 388.892 56.5059 389.564C57.2259 390.212 57.7659 390.992 58.1259 391.904C58.5099 392.816 58.7019 393.812 58.7019 394.892C58.7019 395.924 58.5339 396.872 58.1979 397.736C57.8859 398.6 57.4419 399.428 56.8659 400.22C56.2899 400.988 55.6059 401.732 54.8139 402.452C54.0459 403.172 53.2059 403.892 52.2939 404.612L46.8219 409.04H59.3859V413Z" fill="#0A2235"/>
    <circle cx="40" cy="759" r="39" stroke="#0A2235" stroke-width="2"/>
    <path d="M28.8 773.432C27.168 773.432 25.752 773.144 24.552 772.568C23.352 771.968 22.356 771.116 21.564 770.012C20.796 768.908 20.22 767.552 19.836 765.944C19.476 764.336 19.296 762.5 19.296 760.436C19.296 758.396 19.476 756.572 19.836 754.964C20.22 753.332 20.796 751.964 21.564 750.86C22.356 749.756 23.352 748.916 24.552 748.34C25.752 747.74 27.168 747.44 28.8 747.44C32.064 747.44 34.464 748.58 36 750.86C37.536 753.14 38.304 756.332 38.304 760.436C38.304 764.54 37.536 767.732 36 770.012C34.464 772.292 32.064 773.432 28.8 773.432ZM28.8 769.652C30.528 769.652 31.74 769.04 32.436 767.816C33.156 766.568 33.516 764.852 33.516 762.668V758.204C33.516 756.02 33.156 754.316 32.436 753.092C31.74 751.844 30.528 751.22 28.8 751.22C27.072 751.22 25.848 751.844 25.128 753.092C24.432 754.316 24.084 756.02 24.084 758.204V762.668C24.084 764.852 24.432 766.568 25.128 767.816C25.848 769.04 27.072 769.652 28.8 769.652ZM28.8 762.56C27.96 762.56 27.372 762.392 27.036 762.056C26.724 761.72 26.568 761.312 26.568 760.832V760.04C26.568 759.56 26.724 759.152 27.036 758.816C27.372 758.48 27.96 758.312 28.8 758.312C29.64 758.312 30.216 758.48 30.528 758.816C30.864 759.152 31.032 759.56 31.032 760.04V760.832C31.032 761.312 30.864 761.72 30.528 762.056C30.216 762.392 29.64 762.56 28.8 762.56ZM49.3779 758.024C50.8899 758.024 51.9939 757.724 52.6899 757.124C53.4099 756.524 53.7699 755.768 53.7699 754.856V754.604C53.7699 753.572 53.4219 752.768 52.7259 752.192C52.0539 751.616 51.1179 751.328 49.9179 751.328C48.7659 751.328 47.7579 751.592 46.8939 752.12C46.0299 752.648 45.2859 753.392 44.6619 754.352L41.6019 751.616C42.0339 751.04 42.5139 750.5 43.0419 749.996C43.5939 749.468 44.2059 749.024 44.8779 748.664C45.5739 748.28 46.3419 747.98 47.1819 747.764C48.0219 747.548 48.9819 747.44 50.0619 747.44C51.3339 747.44 52.4979 747.596 53.5539 747.908C54.6339 748.196 55.5459 748.628 56.2899 749.204C57.0579 749.78 57.6459 750.476 58.0539 751.292C58.4859 752.084 58.7019 752.984 58.7019 753.992C58.7019 754.784 58.5699 755.504 58.3059 756.152C58.0419 756.8 57.6819 757.364 57.2259 757.844C56.7939 758.324 56.2779 758.72 55.6779 759.032C55.1019 759.344 54.4779 759.572 53.8059 759.716V759.896C54.5499 760.04 55.2459 760.28 55.8939 760.616C56.5419 760.928 57.1059 761.336 57.5859 761.84C58.0659 762.344 58.4499 762.956 58.7379 763.676C59.0259 764.372 59.1699 765.164 59.1699 766.052C59.1699 767.156 58.9419 768.164 58.4859 769.076C58.0299 769.988 57.3819 770.768 56.5419 771.416C55.7259 772.064 54.7299 772.568 53.5539 772.928C52.4019 773.264 51.1059 773.432 49.6659 773.432C48.4659 773.432 47.3979 773.3 46.4619 773.036C45.5259 772.796 44.6979 772.46 43.9779 772.028C43.2579 771.596 42.6339 771.104 42.1059 770.552C41.5779 769.976 41.1099 769.388 40.7019 768.788L44.1939 766.088C44.7939 767.096 45.5019 767.924 46.3179 768.572C47.1579 769.22 48.2979 769.544 49.7379 769.544C51.1779 769.544 52.2819 769.22 53.0499 768.572C53.8419 767.9 54.2379 766.976 54.2379 765.8V765.512C54.2379 764.36 53.8179 763.484 52.9779 762.884C52.1379 762.26 50.9499 761.948 49.4139 761.948H46.8939V758.024H49.3779Z" fill="#0A2235"/>
    <circle cx="40" cy="1117" r="39" stroke="#0A2235" stroke-width="2"/>
    <path d="M28.8 1131.43C27.168 1131.43 25.752 1131.14 24.552 1130.57C23.352 1129.97 22.356 1129.12 21.564 1128.01C20.796 1126.91 20.22 1125.55 19.836 1123.94C19.476 1122.34 19.296 1120.5 19.296 1118.44C19.296 1116.4 19.476 1114.57 19.836 1112.96C20.22 1111.33 20.796 1109.96 21.564 1108.86C22.356 1107.76 23.352 1106.92 24.552 1106.34C25.752 1105.74 27.168 1105.44 28.8 1105.44C32.064 1105.44 34.464 1106.58 36 1108.86C37.536 1111.14 38.304 1114.33 38.304 1118.44C38.304 1122.54 37.536 1125.73 36 1128.01C34.464 1130.29 32.064 1131.43 28.8 1131.43ZM28.8 1127.65C30.528 1127.65 31.74 1127.04 32.436 1125.82C33.156 1124.57 33.516 1122.85 33.516 1120.67V1116.2C33.516 1114.02 33.156 1112.32 32.436 1111.09C31.74 1109.84 30.528 1109.22 28.8 1109.22C27.072 1109.22 25.848 1109.84 25.128 1111.09C24.432 1112.32 24.084 1114.02 24.084 1116.2V1120.67C24.084 1122.85 24.432 1124.57 25.128 1125.82C25.848 1127.04 27.072 1127.65 28.8 1127.65ZM28.8 1120.56C27.96 1120.56 27.372 1120.39 27.036 1120.06C26.724 1119.72 26.568 1119.31 26.568 1118.83V1118.04C26.568 1117.56 26.724 1117.15 27.036 1116.82C27.372 1116.48 27.96 1116.31 28.8 1116.31C29.64 1116.31 30.216 1116.48 30.528 1116.82C30.864 1117.15 31.032 1117.56 31.032 1118.04V1118.83C31.032 1119.31 30.864 1119.72 30.528 1120.06C30.216 1120.39 29.64 1120.56 28.8 1120.56ZM52.2219 1131V1126.14H40.5939V1122.11L50.8539 1105.87H56.7219V1122.47H60.1059V1126.14H56.7219V1131H52.2219ZM44.4459 1122.47H52.2219V1110.48H51.9339L44.4459 1122.47Z" fill="#0A2235"/>
    <circle cx="40" cy="1477" r="39" stroke="#0A2235" stroke-width="2"/>
    <path d="M28.8 1491.43C27.168 1491.43 25.752 1491.14 24.552 1490.57C23.352 1489.97 22.356 1489.12 21.564 1488.01C20.796 1486.91 20.22 1485.55 19.836 1483.94C19.476 1482.34 19.296 1480.5 19.296 1478.44C19.296 1476.4 19.476 1474.57 19.836 1472.96C20.22 1471.33 20.796 1469.96 21.564 1468.86C22.356 1467.76 23.352 1466.92 24.552 1466.34C25.752 1465.74 27.168 1465.44 28.8 1465.44C32.064 1465.44 34.464 1466.58 36 1468.86C37.536 1471.14 38.304 1474.33 38.304 1478.44C38.304 1482.54 37.536 1485.73 36 1488.01C34.464 1490.29 32.064 1491.43 28.8 1491.43ZM28.8 1487.65C30.528 1487.65 31.74 1487.04 32.436 1485.82C33.156 1484.57 33.516 1482.85 33.516 1480.67V1476.2C33.516 1474.02 33.156 1472.32 32.436 1471.09C31.74 1469.84 30.528 1469.22 28.8 1469.22C27.072 1469.22 25.848 1469.84 25.128 1471.09C24.432 1472.32 24.084 1474.02 24.084 1476.2V1480.67C24.084 1482.85 24.432 1484.57 25.128 1485.82C25.848 1487.04 27.072 1487.65 28.8 1487.65ZM28.8 1480.56C27.96 1480.56 27.372 1480.39 27.036 1480.06C26.724 1479.72 26.568 1479.31 26.568 1478.83V1478.04C26.568 1477.56 26.724 1477.15 27.036 1476.82C27.372 1476.48 27.96 1476.31 28.8 1476.31C29.64 1476.31 30.216 1476.48 30.528 1476.82C30.864 1477.15 31.032 1477.56 31.032 1478.04V1478.83C31.032 1479.31 30.864 1479.72 30.528 1480.06C30.216 1480.39 29.64 1480.56 28.8 1480.56ZM58.2339 1469.98H46.7139L46.1019 1478.4H46.3899C46.6779 1477.87 46.9899 1477.39 47.3259 1476.96C47.6619 1476.5 48.0459 1476.12 48.4779 1475.81C48.9339 1475.5 49.4379 1475.26 49.9899 1475.09C50.5659 1474.92 51.2259 1474.84 51.9699 1474.84C53.0259 1474.84 54.0219 1475.02 54.9579 1475.38C55.8939 1475.74 56.7099 1476.25 57.4059 1476.92C58.1019 1477.6 58.6419 1478.42 59.0259 1479.41C59.4339 1480.39 59.6379 1481.51 59.6379 1482.76C59.6379 1484 59.4219 1485.16 58.9899 1486.21C58.5819 1487.27 57.9699 1488.19 57.1539 1488.98C56.3619 1489.75 55.3779 1490.35 54.2019 1490.78C53.0499 1491.22 51.7179 1491.43 50.2059 1491.43C49.0299 1491.43 47.9739 1491.3 47.0379 1491.04C46.1259 1490.8 45.3219 1490.46 44.6259 1490.03C43.9299 1489.6 43.3179 1489.1 42.7899 1488.55C42.2619 1487.98 41.8059 1487.39 41.4219 1486.79L44.8419 1484.09C45.1299 1484.57 45.4419 1485.02 45.7779 1485.46C46.1379 1485.86 46.5339 1486.22 46.9659 1486.54C47.3979 1486.85 47.8779 1487.1 48.4059 1487.29C48.9579 1487.46 49.5819 1487.54 50.2779 1487.54C51.7179 1487.54 52.8099 1487.16 53.5539 1486.39C54.3219 1485.6 54.7059 1484.52 54.7059 1483.15V1482.86C54.7059 1481.54 54.3219 1480.51 53.5539 1479.77C52.7859 1479.02 51.7059 1478.65 50.3139 1478.65C49.2579 1478.65 48.3939 1478.86 47.7219 1479.26C47.0739 1479.65 46.5459 1480.07 46.1379 1480.52L42.2859 1479.98L43.2219 1465.87H58.2339V1469.98Z" fill="#0A2235"/>
    <rect x="39" y="79" width="2" height="280" fill="#0A2235"/>
    <rect x="39" y="439" width="2" height="280" fill="#0A2235"/>
    <rect x="39" y="798" width="2" height="280" fill="#0A2235"/>
    <rect x="39" y="1157" width="2" height="280" fill="#0A2235"/>
</svg>
