<svg width="99" height="88" viewBox="0 0 99 88" fill="none" xmlns="http://www.w3.org/2000/svg">
    <path fill-rule="evenodd" clip-rule="evenodd" d="M58.7916 12.5464C51.883 9.94839 44.5346 8.85823 37.3385 10.2194C29.2939 11.7411 21.2282 14.5755 16.0096 20.6389C10.5133 27.025 7.77012 35.5244 8.33663 43.9162C8.89402 52.1726 12.9683 60.0661 19.0691 65.9589C24.7067 71.4044 32.8631 72.4895 40.3948 74.8819C48.1321 77.3395 55.6311 81.4669 63.5711 80.0943C72.2223 78.5988 81.9281 74.9154 85.3596 67.109C88.7638 59.3646 81.9811 51.0364 79.9908 42.7406C78.4813 36.449 78.8875 29.7943 75.1193 24.4272C71.1957 18.8388 65.2765 14.9851 58.7916 12.5464Z" fill="#C3D6EB"/>
    <path d="M24.6724 73.5851H78.0452C82.2815 73.5851 85.7288 70.1483 85.7288 65.9224V20.7473C85.7288 16.5221 82.2815 13.0846 78.0452 13.0846H24.6724C20.4361 13.0846 16.9888 16.5221 16.9888 20.7473V65.9224C16.9888 70.1483 20.4361 73.5851 24.6724 73.5851ZM19.4172 20.7473C19.4172 17.8581 21.7747 15.5067 24.6724 15.5067H78.0452C80.943 15.5067 83.3005 17.8581 83.3005 20.7473V65.9224C83.3005 68.8116 80.943 71.163 78.0452 71.163H24.6724C21.7747 71.163 19.4172 68.8116 19.4172 65.9224V20.7473Z" fill="#0A2235" stroke="#C3D6EB" stroke-width="0.164052"/>
    <path d="M36.4147 25.7611C34.4848 25.7611 32.9139 24.1942 32.9139 22.2702C32.9139 20.3456 34.4848 18.7792 36.4147 18.7792C38.3452 18.7792 39.9155 20.3455 39.9155 22.2702C39.9155 24.1942 38.3452 25.7611 36.4147 25.7611ZM36.4147 20.8732C35.6431 20.8732 35.0141 21.4994 35.0141 22.2702C35.0141 23.0409 35.6431 23.6671 36.4147 23.6671C37.187 23.6671 37.8152 23.0409 37.8152 22.2702C37.8152 21.4995 37.187 20.8732 36.4147 20.8732Z" fill="#0A2235" stroke="#C3D6EB" stroke-width="0.164052"/>
    <path d="M25.4066 25.7264C23.4761 25.7264 21.9058 24.1601 21.9058 22.2355C21.9058 20.3109 23.4761 18.7446 25.4066 18.7446C27.3371 18.7446 28.9074 20.3109 28.9074 22.2355C28.9074 24.1601 27.3371 25.7264 25.4066 25.7264ZM25.4066 20.8386C24.6349 20.8386 24.006 21.4654 24.006 22.2355C24.006 23.0062 24.635 23.6324 25.4066 23.6324C26.1789 23.6324 26.8071 23.0062 26.8071 22.2355C26.8071 21.4655 26.1789 20.8386 25.4066 20.8386Z" fill="#0A2235" stroke="#C3D6EB" stroke-width="0.164052"/>
    <path d="M47.4228 25.7951C45.493 25.7951 43.9226 24.2288 43.9226 22.3041C43.9226 20.3801 45.493 18.8138 47.4228 18.8138C49.3533 18.8138 50.9236 20.3802 50.9236 22.3041C50.9236 24.2288 49.3533 25.7951 47.4228 25.7951ZM47.4228 20.9072C46.6512 20.9072 46.0229 21.5335 46.0229 22.3041C46.0229 23.0748 46.6512 23.7011 47.4228 23.7011C48.1951 23.7011 48.8234 23.0748 48.8234 22.3041C48.8234 21.5334 48.1951 20.9072 47.4228 20.9072Z" fill="#0A2235" stroke="#C3D6EB" stroke-width="0.164052"/>
    <rect x="19.2484" y="28.6905" width="65.6167" height="2.1209" fill="#0A2235"/>
    <path d="M51.3585 59.75C56.0619 59.75 60.8234 58.2368 60.8234 55.3445V49.0847L65.2775 47.1267V58.6486C65.2775 59.2568 65.7761 59.75 66.391 59.75C67.0059 59.75 67.5045 59.2568 67.5045 58.6486V45.432C67.5045 44.9436 67.1959 44.5716 66.8227 44.4165L51.8107 37.8172C51.5227 37.6906 51.1941 37.6906 50.9062 37.8172L35.8737 44.4255C35.4717 44.6023 35.2125 44.9967 35.2125 45.432C35.2125 45.8671 35.4716 46.2617 35.8737 46.4384L41.8936 49.0847V55.3445C41.8936 58.2368 46.655 59.75 51.3585 59.75ZM58.5964 55.3445C58.5964 56.0032 56.1338 57.5472 51.3585 57.5472C46.5832 57.5472 44.1206 56.0032 44.1206 55.3445V50.0639L50.9062 53.0469C51.0501 53.1101 51.2044 53.1417 51.3585 53.1417C51.5126 53.1417 51.6668 53.1101 51.8108 53.0469L58.5964 50.0638V55.3445ZM39.0676 45.4321L51.3585 40.0289L63.6494 45.4321L51.3585 50.8351L39.0676 45.4321Z" fill="#0A2235"/>
</svg>
