<svg width="100" height="91" viewBox="0 0 100 91" fill="none" xmlns="http://www.w3.org/2000/svg">
    <path fill-rule="evenodd" clip-rule="evenodd" d="M37.9645 15.3749C44.5686 12.2715 51.7247 10.6196 58.9235 11.3953C66.971 12.2626 75.1425 14.4219 80.7621 19.9872C86.6807 25.8486 90.0521 34.0091 90.1535 42.3236C90.2532 50.5041 86.8585 58.6033 81.3094 64.8903C76.1816 70.6999 68.2288 72.4105 60.9944 75.3602C53.5625 78.3904 46.4967 83.0473 38.564 82.3188C29.9207 81.525 20.0661 78.658 16.0707 71.2345C12.1071 63.8701 18.1368 55.1295 19.4462 46.7976C20.4392 40.4786 19.5158 33.9523 22.8075 28.3669C26.2349 22.5511 31.7653 18.288 37.9645 15.3749Z" fill="#C3D6EB"/>
    <path d="M26.1858 75.5842H78.9077C83.0934 75.5842 86.4977 72.1469 86.4977 67.9225V22.7473C86.4977 18.5236 83.0934 15.0856 78.9077 15.0856H26.1858C22.0002 15.0856 18.5959 18.5236 18.5959 22.7473V67.9225C18.5959 72.1469 22.0002 75.5842 26.1858 75.5842ZM20.9948 22.7473C20.9948 19.8567 23.3244 17.5058 26.1858 17.5058H78.9077C81.7692 17.5058 84.0988 19.8567 84.0988 22.7473V67.9225C84.0988 70.8132 81.7692 73.164 78.9077 73.164H26.1858C23.3244 73.164 20.9948 70.8132 20.9948 67.9225V22.7473Z" fill="#0A2235" stroke="#C3D6EB" stroke-width="0.162186"/>
    <path d="M37.7849 27.762C35.8796 27.762 34.3269 26.1956 34.3269 24.2701C34.3269 22.344 35.8796 20.7782 37.7849 20.7782C39.6909 20.7782 41.243 22.344 41.243 24.2701C41.243 26.1956 39.6909 27.762 37.7849 27.762ZM37.7849 22.8741C37.0218 22.8741 36.4014 23.5008 36.4014 24.2701C36.4014 25.0394 37.0218 25.6661 37.7849 25.6661C38.5488 25.6661 39.1685 25.0393 39.1685 24.2701C39.1685 23.5009 38.5488 22.8741 37.7849 22.8741Z" fill="#0A2235" stroke="#C3D6EB" stroke-width="0.162186"/>
    <path d="M26.911 27.7273C25.0051 27.7273 23.453 26.1615 23.453 24.2354C23.453 22.3094 25.0051 20.7436 26.911 20.7436C28.817 20.7436 30.3691 22.3094 30.3691 24.2354C30.3691 26.1615 28.817 27.7273 26.911 27.7273ZM26.911 22.8394C26.1479 22.8394 25.5275 23.4668 25.5275 24.2354C25.5275 25.0047 26.1479 25.6314 26.911 25.6314C27.6749 25.6314 28.2946 25.0047 28.2946 24.2354C28.2946 23.4669 27.6749 22.8394 26.911 22.8394Z" fill="#0A2235" stroke="#C3D6EB" stroke-width="0.162186"/>
    <path d="M48.6588 27.796C46.7535 27.796 45.2014 26.2302 45.2014 24.3041C45.2014 22.3787 46.7535 20.8129 48.6588 20.8129C50.5648 20.8129 52.1168 22.3787 52.1168 24.3041C52.1168 26.2302 50.5648 27.796 48.6588 27.796ZM48.6588 22.9082C47.8956 22.9082 47.2759 23.5349 47.2759 24.3041C47.2759 25.0733 47.8956 25.7001 48.6588 25.7001C49.4226 25.7001 50.0423 25.0734 50.0423 24.3041C50.0423 23.5349 49.4226 22.9082 48.6588 22.9082Z" fill="#0A2235" stroke="#C3D6EB" stroke-width="0.162186"/>
    <rect x="20.8426" y="30.4893" width="64.8704" height="2.09677" fill="#0A2235"/>
    <rect x="57.0278" y="40.8055" width="19.8611" height="2.16667" rx="0.722222" fill="#0A2235"/>
    <rect x="57.0278" y="47.6667" width="19.8611" height="2.16667" rx="0.722222" fill="#0A2235"/>
    <rect x="57.0278" y="54.5278" width="19.8611" height="2.16667" rx="0.722222" fill="#0A2235"/>
    <rect x="57.0278" y="61.3889" width="19.8611" height="2.16667" rx="0.722222" fill="#0A2235"/>
    <rect x="27.9583" y="41.7083" width="18.0556" height="20.9444" rx="0.902778" stroke="#0A2235" stroke-width="1.80556"/>
</svg>
